<svg xmlns="http://www.w3.org/2000/svg" xmlns:xlink="http://www.w3.org/1999/xlink" width="1668.936" height="103.853" viewBox="0 0 1668.936 103.853">
  <defs>
    <clipPath id="clip-path">
      <rect id="Rectangle_4608" data-name="Rectangle 4608" width="1176.47" height="103.852" transform="translate(0 0)" fill="#fff"/>
    </clipPath>
    <clipPath id="clip-path-2">
      <rect id="Rectangle_4640" data-name="Rectangle 4640" width="391.168" height="70.64" transform="translate(0 0)" fill="#fff"/>
    </clipPath>
    <clipPath id="clip-path-3">
      <rect id="Rectangle_4661" data-name="Rectangle 4661" width="106.936" height="54.855" transform="translate(0 0)" fill="#fff"/>
    </clipPath>
  </defs>
  <g id="Group_8004" data-name="Group 8004" transform="translate(-120 -8972.148)" opacity="0.23">
    <g id="Group_7998" data-name="Group 7998" transform="translate(120 8972.148)">
      <path id="Path_25354" data-name="Path 25354" d="M937.387,80.044l3.437,1.512h-4.561Z" fill="#fff"/>
      <path id="Path_25355" data-name="Path 25355" d="M950.113,80.044l1.124,1.512h-4.561Z" fill="#fff"/>
      <path id="Path_25356" data-name="Path 25356" d="M946.07,66.264h.491l-.246-.769Z" fill="#fff"/>
      <path id="Path_25357" data-name="Path 25357" d="M941.024,66.264h.532l-.266-.769Z" fill="#fff"/>
      <rect id="Rectangle_4465" data-name="Rectangle 4465" width="7.231" height="17.354" transform="translate(952.737 82.243)" fill="#fff"/>
      <rect id="Rectangle_4466" data-name="Rectangle 4466" width="7.231" height="17.354" transform="translate(927.574 82.243)" fill="#fff"/>
      <rect id="Rectangle_4467" data-name="Rectangle 4467" width="14.998" height="18.366" transform="translate(936.264 81.557)" fill="#fff"/>
      <rect id="Rectangle_4468" data-name="Rectangle 4468" width="5.526" height="16.775" transform="translate(941.023 66.264)" fill="#fff"/>
      <rect id="Rectangle_4469" data-name="Rectangle 4469" width="2.314" height="6.291" transform="translate(942.614 62.431)" fill="#fff"/>
      <rect id="Rectangle_4470" data-name="Rectangle 4470" width="1.048" height="6.291" transform="translate(943.247 57.55)" fill="#fff"/>
      <path id="Path_25358" data-name="Path 25358" d="M943.03,62.684h1.482V60.659L943.8,59.5l-.766,1.157Z" fill="#fff"/>
      <path id="Path_25359" data-name="Path 25359" d="M941.963,68.722h3.615v-3.9l-1.807-.434-1.808.434Z" fill="#fff"/>
      <rect id="Rectangle_4471" data-name="Rectangle 4471" width="6.652" height="12.22" transform="translate(940.445 70.819)" fill="#fff"/>
      <rect id="Rectangle_4472" data-name="Rectangle 4472" width="7.665" height="1.88" transform="translate(939.939 70.819)" fill="#fff"/>
      <rect id="Rectangle_4473" data-name="Rectangle 4473" width="7.665" height="0.941" transform="translate(939.938 74.65)" fill="#fff"/>
      <rect id="Rectangle_4474" data-name="Rectangle 4474" width="7.664" height="0.578" transform="translate(952.52 82.099)" fill="#fff"/>
      <rect id="Rectangle_4475" data-name="Rectangle 4475" width="7.664" height="0.578" transform="translate(927.357 82.099)" fill="#fff"/>
      <g id="Group_7997" data-name="Group 7997">
        <g id="Group_7996" data-name="Group 7996" clip-path="url(#clip-path)">
          <path id="Path_25360" data-name="Path 25360" d="M944.474,55.176a.859.859,0,0,1,.175.5.878.878,0,1,1-1.755,0,.859.859,0,0,1,.175-.5,1.032,1.032,0,0,0-.341.762,1.043,1.043,0,0,0,2.087,0,1.032,1.032,0,0,0-.341-.762" fill="#fff"/>
          <path id="Path_25361" data-name="Path 25361" d="M874.376,101.275h15.078V48.984H874.376Zm10.865-42.343c-.352,1.258-1.733,3.044-3.326,3.044s-2.973-1.786-3.325-3.044l-2.283-8.163h11.217Z" fill="#fff"/>
          <rect id="Rectangle_4476" data-name="Rectangle 4476" width="5.601" height="33.388" transform="translate(851.857 67.879)" fill="#fff"/>
          <path id="Path_25362" data-name="Path 25362" d="M851.842,81.571c-.266-9.474-7.333-13.25-10.081-13.692l-.013-1.926c-2.144,0-9.816,5.746-10.094,15.618v0q-.013.489-.014.985c0,.33.005.659.014.985v17.722h20.2v-19.7Zm-12.621-9.382a.952.952,0,1,1,.952-.952.952.952,0,0,1-.952.952" fill="#fff"/>
          <rect id="Rectangle_4477" data-name="Rectangle 4477" width="0.337" height="11.109" transform="translate(842.805 60.365)" fill="#fff"/>
          <rect id="Rectangle_4478" data-name="Rectangle 4478" width="0.337" height="11.109" transform="translate(846.677 64.95)" fill="#fff"/>
          <rect id="Rectangle_4479" data-name="Rectangle 4479" width="0.337" height="11.109" transform="translate(841.412 64.501)" fill="#fff"/>
          <path id="Path_25363" data-name="Path 25363" d="M854.272,68.748h.771l-.385-10.736Z" fill="#fff"/>
          <rect id="Rectangle_4480" data-name="Rectangle 4480" width="196.756" height="3.673" transform="translate(782.518 100.166)" fill="#fff"/>
          <path id="Path_25364" data-name="Path 25364" d="M915.762,89.88l2.792,3.319H912.97Z" fill="#fff"/>
          <rect id="Rectangle_4481" data-name="Rectangle 4481" width="0.08" height="3.418" transform="translate(915.722 87.587)" fill="#fff"/>
          <path id="Path_25365" data-name="Path 25365" d="M892.592,101.267h7.542V70.941l-3.917-.837-3.625.837Z" fill="#fff"/>
          <path id="Path_25366" data-name="Path 25366" d="M896.363,101.083l15.611.184V88.015l-4.886-1.254-10.725.766Z" fill="#fff"/>
          <path id="Path_25367" data-name="Path 25367" d="M895.977,70.863h.771l-.385-10.736Z" fill="#fff"/>
          <rect id="Rectangle_4482" data-name="Rectangle 4482" width="9.948" height="13.257" transform="translate(782.518 88.771)" fill="#fff"/>
          <rect id="Rectangle_4483" data-name="Rectangle 4483" width="9.948" height="19.75" transform="translate(791.319 82.278)" fill="#fff"/>
          <path id="Path_25368" data-name="Path 25368" d="M795.907,82.528h.771l-.385-10.736Z" fill="#fff"/>
          <rect id="Rectangle_4484" data-name="Rectangle 4484" width="8.752" height="0.629" transform="translate(793.178 83.61)" fill="#fff"/>
          <rect id="Rectangle_4485" data-name="Rectangle 4485" width="8.752" height="0.629" transform="translate(793.178 85.189)" fill="#fff"/>
          <rect id="Rectangle_4486" data-name="Rectangle 4486" width="8.752" height="0.629" transform="translate(793.178 86.767)" fill="#fff"/>
          <rect id="Rectangle_4487" data-name="Rectangle 4487" width="8.752" height="0.629" transform="translate(793.178 88.345)" fill="#fff"/>
          <rect id="Rectangle_4488" data-name="Rectangle 4488" width="8.752" height="0.629" transform="translate(793.178 89.923)" fill="#fff"/>
          <rect id="Rectangle_4489" data-name="Rectangle 4489" width="8.752" height="0.629" transform="translate(793.178 91.502)" fill="#fff"/>
          <rect id="Rectangle_4490" data-name="Rectangle 4490" width="8.752" height="0.629" transform="translate(793.178 93.08)" fill="#fff"/>
          <rect id="Rectangle_4491" data-name="Rectangle 4491" width="8.752" height="0.629" transform="translate(793.178 94.658)" fill="#fff"/>
          <rect id="Rectangle_4492" data-name="Rectangle 4492" width="8.752" height="0.629" transform="translate(793.178 96.237)" fill="#fff"/>
          <rect id="Rectangle_4493" data-name="Rectangle 4493" width="8.752" height="0.629" transform="translate(793.178 97.815)" fill="#fff"/>
          <rect id="Rectangle_4494" data-name="Rectangle 4494" width="8.752" height="0.629" transform="translate(793.178 99.393)" fill="#fff"/>
          <rect id="Rectangle_4495" data-name="Rectangle 4495" width="9.948" height="13.257" transform="translate(854.657 88.771)" fill="#fff"/>
          <path id="Path_25369" data-name="Path 25369" d="M863.458,102.028h9.948V78.835l-9.948,4.591Z" fill="#fff"/>
          <path id="Path_25370" data-name="Path 25370" d="M869.194,82.528h.771l-.385-10.736Z" fill="#fff"/>
          <path id="Path_25371" data-name="Path 25371" d="M871.49,82.528h.771l-.385-10.736Z" fill="#fff"/>
          <rect id="Rectangle_4496" data-name="Rectangle 4496" width="0.191" height="9.282" transform="translate(925.181 56.981)" fill="#fff"/>
          <rect id="Rectangle_4497" data-name="Rectangle 4497" width="0.191" height="9.282" transform="translate(924.033 56.981)" fill="#fff"/>
          <path id="Path_25372" data-name="Path 25372" d="M921.642,102h6.218V62.087l-6.218,2.3Z" fill="#fff"/>
          <rect id="Rectangle_4498" data-name="Rectangle 4498" width="58.062" height="8.068" transform="translate(910.498 93.199)" fill="#fff"/>
          <rect id="Rectangle_4499" data-name="Rectangle 4499" width="9.135" height="10.275" transform="translate(965.691 90.992)" fill="#fff"/>
          <path id="Path_25373" data-name="Path 25373" d="M978.274,87.79l-.82-3.4-.819,3.4v14.5h1.647V87.79Z" fill="#fff"/>
          <path id="Path_25374" data-name="Path 25374" d="M976.419,87.855c0,.144.461.261,1.029.261s1.03-.117,1.03-.261-.461-.261-1.03-.261-1.029.117-1.029.261" fill="#fff"/>
          <path id="Path_25375" data-name="Path 25375" d="M976.419,90.565c0,.144.461.261,1.029.261s1.03-.117,1.03-.261-.461-.261-1.03-.261-1.029.117-1.029.261" fill="#fff"/>
          <path id="Path_25376" data-name="Path 25376" d="M970.956,84.754l-.82-3.4-.819,3.4v14.5h1.647v-14.5Z" fill="#fff"/>
          <path id="Path_25377" data-name="Path 25377" d="M969.1,84.819c0,.144.461.261,1.029.261s1.03-.117,1.03-.261-.461-.261-1.03-.261-1.029.117-1.029.261" fill="#fff"/>
          <path id="Path_25378" data-name="Path 25378" d="M969.1,87.529c0,.144.461.261,1.029.261s1.03-.117,1.03-.261-.461-.261-1.03-.261-1.029.117-1.029.261" fill="#fff"/>
          <path id="Path_25379" data-name="Path 25379" d="M814.485,68.215h0a16.521,16.521,0,0,0-9.039,14.73v19.947h9.039Z" fill="#fff"/>
          <path id="Path_25380" data-name="Path 25380" d="M816.494,76.752h0c5.546,2.123,9.039,6.415,9.039,11.1v15.036h-9.039Z" fill="#fff"/>
          <rect id="Rectangle_4500" data-name="Rectangle 4500" width="6.098" height="8.664" transform="translate(823.453 91.502)" fill="#fff"/>
          <rect id="Rectangle_4501" data-name="Rectangle 4501" width="1.112" height="54.65" transform="translate(412.297 48.147)" fill="#fff"/>
          <path id="Path_25381" data-name="Path 25381" d="M400.9,65.622a37.491,37.491,0,0,0-7.424,22.639,38.6,38.6,0,0,0,1.946,12.153h17.515V65.622Z" fill="#fff"/>
          <path id="Path_25382" data-name="Path 25382" d="M393.471,88.261a37.752,37.752,0,0,0,1.994,12.153h17.944V55.728c-11.72,5.386-19.938,17.923-19.938,32.533m18.667,10.882h-15.75a36.475,36.475,0,0,1-1.646-10.882c0-12.983,6.765-24.722,17.4-30.478Z" fill="#fff"/>
          <path id="Path_25383" data-name="Path 25383" d="M400.7,88.261a57.561,57.561,0,0,0,1.271,12.153h11.438V55.728C405.938,61.114,400.7,73.651,400.7,88.261m11.438,10.882h-9.132a56.672,56.672,0,0,1-1.035-10.882c0-12.506,3.925-23.832,10.167-29.817Z" fill="#fff"/>
          <path id="Path_25384" data-name="Path 25384" d="M400.121,65.518c-.066,1.072,3.879,2.186,8.811,2.488s8.983-.322,9.048-1.394-3.879-2.187-8.81-2.489-8.983.323-9.049,1.395" fill="#fff"/>
          <path id="Path_25385" data-name="Path 25385" d="M476.034,73.225l9.061,1.313a1.174,1.174,0,0,1,1.076,1.1v24.443H476.034Z" fill="#fff"/>
          <rect id="Rectangle_4502" data-name="Rectangle 4502" width="10.137" height="15.583" transform="translate(465.897 84.494)" fill="#fff"/>
          <path id="Path_25386" data-name="Path 25386" d="M469.5,66.3h6.534V86.585H468.31v-19.1A1.189,1.189,0,0,1,469.5,66.3" fill="#fff"/>
          <path id="Path_25387" data-name="Path 25387" d="M476.034,54.23l6.711,1.276a1.164,1.164,0,0,1,1.013,1.085V78.174h-7.724Z" fill="#fff"/>
          <rect id="Rectangle_4503" data-name="Rectangle 4503" width="4.908" height="23.405" transform="translate(471.126 54.769)" fill="#fff"/>
          <path id="Path_25388" data-name="Path 25388" d="M472.315,43.067h3.719v23.4h-4.908V44.256a1.189,1.189,0,0,1,1.189-1.189" fill="#fff"/>
          <path id="Path_25389" data-name="Path 25389" d="M476.034,30.825l4.041.979c.519.126.867.467.867.85V51.346h-4.908Z" transform="translate(0 4.817)" fill="#fff"/>
          <path id="Path_25390" data-name="Path 25390" d="M475.011,19.662h1.023V33.351h-2.212V20.357c0-.384.532-.7,1.189-.7" transform="translate(0 9.716)" fill="#fff"/>
          <path id="Path_25391" data-name="Path 25391" d="M476.034,8.889l2.212.573V23.33h-2.212Z" transform="translate(0 19)" fill="#fff"/>
          <rect id="Rectangle_4504" data-name="Rectangle 4504" width="0.664" height="3.748" transform="translate(475.37 25.63)" fill="#fff"/>
          <rect id="Rectangle_4505" data-name="Rectangle 4505" width="29.929" height="12.546" transform="translate(461.069 87.53)" fill="#fff"/>
          <path id="Path_25392" data-name="Path 25392" d="M508,62.98a1.845,1.845,0,1,0,1.846,1.846A1.848,1.848,0,0,0,508,62.98" fill="#fff"/>
          <path id="Path_25393" data-name="Path 25393" d="M508,48.147c-3.4,7.994-6.2,28.142-6.2,49.721H514.2c0-21.579-2.6-41.727-6.205-49.721m0,19.16a2.481,2.481,0,1,1,2.481-2.481A2.484,2.484,0,0,1,508,67.307" fill="#fff"/>
          <path id="Path_25394" data-name="Path 25394" d="M422.36,75.23l-.97-4.019-.97,4.019v21.6h1.95V75.23Z" fill="#fff"/>
          <path id="Path_25395" data-name="Path 25395" d="M420.165,75.307c0,.17.546.308,1.218.308s1.219-.138,1.219-.308S422.056,75,421.383,75s-1.218.138-1.218.308" fill="#fff"/>
          <path id="Path_25396" data-name="Path 25396" d="M420.165,78.514c0,.17.546.308,1.218.308s1.219-.138,1.219-.308-.546-.308-1.219-.308-1.218.138-1.218.308" fill="#fff"/>
          <path id="Path_25397" data-name="Path 25397" d="M445.692,75.23l-.97-4.019-.97,4.019v21.6h1.95V75.23Z" fill="#fff"/>
          <path id="Path_25398" data-name="Path 25398" d="M443.5,75.307c0,.17.545.308,1.218.308s1.218-.138,1.218-.308S445.389,75,444.716,75s-1.218.138-1.218.308" fill="#fff"/>
          <path id="Path_25399" data-name="Path 25399" d="M443.5,78.514c0,.17.545.308,1.218.308s1.218-.138,1.218-.308-.545-.308-1.218-.308-1.218.138-1.218.308" fill="#fff"/>
          <path id="Path_25400" data-name="Path 25400" d="M426.967,79.678,426,75.659l-.97,4.019v21.6h1.95v-21.6Z" fill="#fff"/>
          <path id="Path_25401" data-name="Path 25401" d="M424.772,79.755c0,.17.545.308,1.218.308s1.219-.138,1.219-.308-.546-.308-1.219-.308-1.218.138-1.218.308" fill="#fff"/>
          <path id="Path_25402" data-name="Path 25402" d="M424.772,82.963c0,.17.545.308,1.218.308s1.219-.138,1.219-.308-.546-.308-1.219-.308-1.218.138-1.218.308" fill="#fff"/>
          <path id="Path_25403" data-name="Path 25403" d="M441.129,79.678l-.97-4.019-.97,4.019v21.6h1.95v-21.6Z" fill="#fff"/>
          <path id="Path_25404" data-name="Path 25404" d="M438.934,79.755c0,.17.545.308,1.218.308s1.218-.138,1.218-.308-.545-.308-1.218-.308-1.218.138-1.218.308" fill="#fff"/>
          <path id="Path_25405" data-name="Path 25405" d="M438.934,82.963c0,.17.545.308,1.218.308s1.218-.138,1.218-.308-.545-.308-1.218-.308-1.218.138-1.218.308" fill="#fff"/>
          <rect id="Rectangle_4506" data-name="Rectangle 4506" width="196.333" height="7.551" transform="translate(391.168 96.301)" fill="#fff"/>
          <rect id="Rectangle_4507" data-name="Rectangle 4507" width="22.665" height="14.637" transform="translate(515.402 83.23)" fill="#fff"/>
          <rect id="Rectangle_4508" data-name="Rectangle 4508" width="19.322" height="14.637" transform="translate(493.108 83.23)" fill="#fff"/>
          <rect id="Rectangle_4509" data-name="Rectangle 4509" width="9.956" height="14.637" transform="translate(515.402 70.753)" fill="#fff"/>
          <path id="Path_25406" data-name="Path 25406" d="M557.343,96.74h15.887V58.153l-15.887,6.355Z" fill="#fff"/>
          <rect id="Rectangle_4510" data-name="Rectangle 4510" width="9.479" height="14.695" transform="translate(573.865 82.044)" fill="#fff"/>
          <path id="Path_25407" data-name="Path 25407" d="M450.293,96.74h7.573V89.577a10.344,10.344,0,0,0-5.95-9.364l-1.623-.762Z" fill="#fff"/>
          <path id="Path_25408" data-name="Path 25408" d="M538.067,87.271h-9.479V78.305a12.947,12.947,0,0,1,7.448-11.722l2.031-.953Z" fill="#fff"/>
          <rect id="Rectangle_4511" data-name="Rectangle 4511" width="26.001" height="9.779" transform="translate(536.081 86.96)" fill="#fff"/>
          <rect id="Rectangle_4512" data-name="Rectangle 4512" width="22.824" height="9.779" transform="translate(440.152 86.96)" fill="#fff"/>
          <rect id="Rectangle_4513" data-name="Rectangle 4513" width="26.001" height="7.99" transform="translate(415.369 90.179)" fill="#fff"/>
          <path id="Path_25409" data-name="Path 25409" d="M493.095,83.838h7.48V78.169l-7.48-1.881Z" fill="#fff"/>
          <path id="Path_25410" data-name="Path 25410" d="M424.772,91.9c0,2.727,3.664,4.937,8.183,4.937s8.183-2.21,8.183-4.937-3.664-4.937-8.183-4.937-8.183,2.21-8.183,4.937" fill="#fff"/>
          <rect id="Rectangle_4514" data-name="Rectangle 4514" width="9.638" height="0.792" transform="translate(516.469 78.983)" fill="#fff"/>
          <rect id="Rectangle_4515" data-name="Rectangle 4515" width="9.638" height="0.791" transform="translate(516.469 80.352)" fill="#fff"/>
          <rect id="Rectangle_4516" data-name="Rectangle 4516" width="9.638" height="0.791" transform="translate(516.469 81.721)" fill="#fff"/>
          <rect id="Rectangle_4517" data-name="Rectangle 4517" width="9.638" height="0.791" transform="translate(516.469 74.844)" fill="#fff"/>
          <rect id="Rectangle_4518" data-name="Rectangle 4518" width="9.638" height="0.791" transform="translate(516.469 76.213)" fill="#fff"/>
          <rect id="Rectangle_4519" data-name="Rectangle 4519" width="9.638" height="0.792" transform="translate(516.469 77.58)" fill="#fff"/>
          <rect id="Rectangle_4520" data-name="Rectangle 4520" width="9.638" height="0.791" transform="translate(516.469 70.753)" fill="#fff"/>
          <rect id="Rectangle_4521" data-name="Rectangle 4521" width="9.638" height="0.791" transform="translate(516.469 72.122)" fill="#fff"/>
          <rect id="Rectangle_4522" data-name="Rectangle 4522" width="9.638" height="0.792" transform="translate(516.469 73.49)" fill="#fff"/>
          <rect id="Rectangle_4523" data-name="Rectangle 4523" width="16.31" height="1.394" transform="translate(557.766 64.826)" fill="#fff"/>
          <rect id="Rectangle_4524" data-name="Rectangle 4524" width="16.31" height="1.394" transform="translate(557.766 67.205)" fill="#fff"/>
          <rect id="Rectangle_4525" data-name="Rectangle 4525" width="16.31" height="1.394" transform="translate(557.766 69.584)" fill="#fff"/>
          <rect id="Rectangle_4526" data-name="Rectangle 4526" width="16.31" height="1.394" transform="translate(557.766 71.963)" fill="#fff"/>
          <rect id="Rectangle_4527" data-name="Rectangle 4527" width="16.31" height="1.394" transform="translate(557.766 74.343)" fill="#fff"/>
          <rect id="Rectangle_4528" data-name="Rectangle 4528" width="16.31" height="1.394" transform="translate(557.766 76.722)" fill="#fff"/>
          <path id="Path_25411" data-name="Path 25411" d="M497.2,78.7h.589l-.3-13.079Z" fill="#fff"/>
          <path id="Path_25412" data-name="Path 25412" d="M522.278,71.365h.589l-.3-13.079Z" fill="#fff"/>
          <path id="Path_25413" data-name="Path 25413" d="M569.435,60.365h.589l-.3-13.079Z" fill="#fff"/>
          <path id="Path_25414" data-name="Path 25414" d="M432.661,87.633h.589l-.3-4.237Z" fill="#fff"/>
          <path id="Path_25415" data-name="Path 25415" d="M451.564,94.976h.589l-.3-21.429Z" fill="#fff"/>
          <path id="Path_25416" data-name="Path 25416" d="M520.712,71.365h.589l-.3-13.079Z" fill="#fff"/>
          <path id="Path_25417" data-name="Path 25417" d="M553.532,66.85l-2.315,23.065L553.772,58.7l.853-28.946-9.869-1.206-5.206,1.206,1.206,24.272-.083,3.12,3.665-25.606-3.787,30.2-1,37.662h15.075l-1.206-28.719Z" fill="#fff"/>
          <path id="Path_25418" data-name="Path 25418" d="M544.565,30.583h.589l-.3-5.388Z" fill="#fff"/>
          <path id="Path_25419" data-name="Path 25419" d="M548.774,32.525h.589l-.3-5.388Z" fill="#fff"/>
          <path id="Path_25420" data-name="Path 25420" d="M553.409,31.5H554l-.3-5.388Z" fill="#fff"/>
          <path id="Path_25421" data-name="Path 25421" d="M539.871,30.877h.589l-.3-5.388Z" fill="#fff"/>
          <path id="Path_25422" data-name="Path 25422" d="M92.022,72.895,91.1,66.771l-.924,6.124v26.14h1.857V72.895Z" fill="#fff"/>
          <path id="Path_25423" data-name="Path 25423" d="M89.93,73.012c0,.26.52.47,1.161.47s1.161-.21,1.161-.47-.52-.47-1.161-.47-1.161.21-1.161.47" fill="#fff"/>
          <path id="Path_25424" data-name="Path 25424" d="M89.93,77.9c0,.26.52.47,1.161.47s1.161-.21,1.161-.47-.52-.47-1.161-.47-1.161.211-1.161.47" fill="#fff"/>
          <path id="Path_25425" data-name="Path 25425" d="M89.93,78.6c0,.259.52.47,1.161.47s1.161-.211,1.161-.47-.52-.47-1.161-.47-1.161.21-1.161.47" fill="#fff"/>
          <rect id="Rectangle_4529" data-name="Rectangle 4529" width="2.708" height="6.513" transform="translate(89.737 92.522)" fill="#fff"/>
          <path id="Path_25426" data-name="Path 25426" d="M89.737,92.522h2.708l-.436-3.917H90.173Z" fill="#fff"/>
          <path id="Path_25427" data-name="Path 25427" d="M97.861,66.676l-1.144-7.581-1.144,7.581V99.035h2.3V66.676Z" fill="#fff"/>
          <path id="Path_25428" data-name="Path 25428" d="M95.272,66.821c0,.321.643.582,1.437.582s1.437-.261,1.437-.582-.643-.582-1.437-.582-1.437.261-1.437.582" fill="#fff"/>
          <path id="Path_25429" data-name="Path 25429" d="M95.272,72.871c0,.321.643.582,1.437.582s1.437-.261,1.437-.582-.643-.582-1.437-.582-1.437.261-1.437.582" fill="#fff"/>
          <path id="Path_25430" data-name="Path 25430" d="M95.272,73.74c0,.321.643.582,1.437.582s1.437-.261,1.437-.582-.643-.582-1.437-.582-1.437.261-1.437.582" fill="#fff"/>
          <rect id="Rectangle_4530" data-name="Rectangle 4530" width="3.352" height="8.062" transform="translate(95.033 90.973)" fill="#fff"/>
          <path id="Path_25431" data-name="Path 25431" d="M95.033,90.973h3.352l-.54-4.849H95.573Z" fill="#fff"/>
          <path id="Path_25432" data-name="Path 25432" d="M55.812,72.895l.924-6.124.924,6.124v26.14H55.8V72.895Z" fill="#fff"/>
          <path id="Path_25433" data-name="Path 25433" d="M57.9,73.012c0,.26-.52.47-1.161.47s-1.161-.21-1.161-.47.52-.47,1.161-.47,1.161.21,1.161.47" fill="#fff"/>
          <path id="Path_25434" data-name="Path 25434" d="M57.9,77.9c0,.26-.52.47-1.161.47s-1.161-.21-1.161-.47.52-.47,1.161-.47,1.161.211,1.161.47" fill="#fff"/>
          <path id="Path_25435" data-name="Path 25435" d="M57.9,78.6c0,.259-.52.47-1.161.47s-1.161-.211-1.161-.47.52-.47,1.161-.47,1.161.21,1.161.47" fill="#fff"/>
          <rect id="Rectangle_4531" data-name="Rectangle 4531" width="2.708" height="6.513" transform="translate(55.388 92.522)" fill="#fff"/>
          <path id="Path_25436" data-name="Path 25436" d="M58.1,92.522H55.388l.436-3.917H57.66Z" fill="#fff"/>
          <path id="Path_25437" data-name="Path 25437" d="M49.972,66.676l1.144-7.581,1.144,7.581V99.035h-2.3V66.676Z" fill="#fff"/>
          <path id="Path_25438" data-name="Path 25438" d="M52.561,66.821c0,.321-.643.582-1.437.582s-1.437-.261-1.437-.582.643-.582,1.437-.582,1.437.261,1.437.582" fill="#fff"/>
          <path id="Path_25439" data-name="Path 25439" d="M52.561,72.871c0,.321-.643.582-1.437.582s-1.437-.261-1.437-.582.643-.582,1.437-.582,1.437.261,1.437.582" fill="#fff"/>
          <path id="Path_25440" data-name="Path 25440" d="M52.561,73.74c0,.321-.643.582-1.437.582s-1.437-.261-1.437-.582.643-.582,1.437-.582,1.437.261,1.437.582" fill="#fff"/>
          <rect id="Rectangle_4532" data-name="Rectangle 4532" width="3.352" height="8.062" transform="translate(49.448 90.973)" fill="#fff"/>
          <path id="Path_25441" data-name="Path 25441" d="M52.8,90.973H49.448l.54-4.849H52.26Z" fill="#fff"/>
          <rect id="Rectangle_4533" data-name="Rectangle 4533" width="28.297" height="16.634" transform="translate(59.76 82.401)" fill="#fff"/>
          <rect id="Rectangle_4534" data-name="Rectangle 4534" width="16.892" height="4.583" transform="translate(65.462 78.055)" fill="#fff"/>
          <rect id="Rectangle_4535" data-name="Rectangle 4535" width="15.601" height="0.818" transform="translate(66.108 77.218)" fill="#fff"/>
          <path id="Path_25442" data-name="Path 25442" d="M82.193,82.391h5.433c0-1.953-2.432-3.537-5.433-3.537Z" fill="#fff"/>
          <path id="Path_25443" data-name="Path 25443" d="M65.462,82.391H60.029c0-1.953,2.432-3.537,5.433-3.537Z" fill="#fff"/>
          <path id="Path_25444" data-name="Path 25444" d="M66.888,77.218c0-2.953,3.143-5.348,7.02-5.348s7.021,2.395,7.021,5.348-3.143,5.348-7.021,5.348-7.02-2.4-7.02-5.348" fill="#fff"/>
          <path id="Path_25445" data-name="Path 25445" d="M74.046,70.895l-.139-1.068-.139,1.068-.084.307h.448Z" fill="#fff"/>
          <path id="Path_25446" data-name="Path 25446" d="M73.2,71.871a.725.725,0,1,0,.712-.861.8.8,0,0,0-.712.861" fill="#fff"/>
          <rect id="Rectangle_4536" data-name="Rectangle 4536" width="50.676" height="5.014" transform="translate(48.57 94.021)" fill="#fff"/>
          <rect id="Rectangle_4537" data-name="Rectangle 4537" width="36.514" height="3.107" transform="translate(55.721 92.672)" fill="#fff"/>
          <path id="Path_25447" data-name="Path 25447" d="M63.3,90.718H84.515l7.229,2.245H56.072Z" fill="#fff"/>
          <rect id="Rectangle_4538" data-name="Rectangle 4538" width="10.831" height="34.839" transform="translate(12.398 64.41)" fill="#fff"/>
          <rect id="Rectangle_4539" data-name="Rectangle 4539" width="13.261" height="32.441" transform="translate(11.183 66.808)" fill="#fff"/>
          <path id="Path_25448" data-name="Path 25448" d="M16.2,68.275h.529L16.5,53.645Z" fill="#fff"/>
          <path id="Path_25449" data-name="Path 25449" d="M18.857,68.275h.529l-.231-14.63Z" fill="#fff"/>
          <rect id="Rectangle_4540" data-name="Rectangle 4540" width="7.673" height="33.01" transform="translate(176.112 66.328)" fill="#fff"/>
          <path id="Path_25450" data-name="Path 25450" d="M182.045,67.691h.535l-.234-10.853Z" fill="#fff"/>
          <path id="Path_25451" data-name="Path 25451" d="M174.737,68.318v1.289h.566v.973h-.566v.75h.566V72.3h-.566v.75h.566v.973h-.566v.75h.566v.973h-.566V76.5h.566v.972h-.566v.751h.566V79.2h-.566v.751h.566v.972h-.566v.751h.566v.972h-.566v.751h.566v.972h-.566v.751h.566v.973h-.566v.75h.566v.973h-.566v.75h.566v.973h-.566v.733h.566v.973h-.566v.734h.566v.972h-.566v.734h.566v.972h-.566v.734h.566v.972h-.566v.734h.566v.972h-.566v1.274h10.422V68.318Z" fill="#fff"/>
          <path id="Path_25452" data-name="Path 25452" d="M172.551,70.138h0a13.844,13.844,0,0,0-7.574,12.342V99.192h7.574Z" fill="#fff"/>
          <path id="Path_25453" data-name="Path 25453" d="M142.467,99.6V85.2l-2.97-.552V99.6h-1.316V75.867l1.316.373v.913l2.97.807v-.878l1.239.35V99.6Zm0-15.922V79.443l-2.97-.774v4.418Z" fill="#fff"/>
          <path id="Path_25454" data-name="Path 25454" d="M119.284,101.572V86.508l-2.1-.307v15.365l-1.116,0V78.643l1.116.233v.787l2.1.424v-.772l1.084.226v22.035Zm0-16.467V81.451l-2.1-.408v3.739Z" fill="#fff"/>
          <path id="Path_25455" data-name="Path 25455" d="M106.845,95.544l-.86-3.238c21.906-5.817,50.449-1.324,51.654-1.13l-.533,3.308c-.288-.046-29.055-4.572-50.261,1.06" fill="#fff"/>
          <path id="Path_25456" data-name="Path 25456" d="M108.163,93.04a.207.207,0,0,1-.175-.1.21.21,0,0,1,.06-.29c3.494-2.283,6.172-6.9,7.959-13.722a.209.209,0,0,1,.387-.045c3.024,5.663,6.248,8.572,9.58,8.645,3.885.1,8.117-3.68,12.56-11.189a.235.235,0,0,1,.183-.1.209.209,0,0,1,.18.107c2.906,5.168,6.572,10.869,11.738,13.962a.209.209,0,1,1-.215.359c-5.145-3.08-8.806-8.669-11.711-13.8-4.407,7.356-8.647,11.085-12.607,11.085h-.137c-3.4-.075-6.659-2.9-9.689-8.4-1.834,6.736-4.453,11.141-8,13.458a.211.211,0,0,1-.115.034" fill="#fff"/>
          <path id="Path_25457" data-name="Path 25457" d="M111.711,94.065a.142.142,0,0,1-.118-.064.14.14,0,0,1,.043-.193c3.6-2.294,6.361-6.924,8.2-13.763a.139.139,0,0,1,.257-.031c3.116,5.685,6.444,8.607,9.892,8.683l.14,0c3.987,0,8.3-3.776,12.824-11.226a.14.14,0,0,1,.12-.068h0a.144.144,0,0,1,.12.07c2.985,5.176,6.755,10.886,12.073,13.989a.139.139,0,0,1,.051.191.141.141,0,0,1-.191.05c-5.3-3.1-9.072-8.733-12.058-13.887-4.533,7.406-8.886,11.16-12.94,11.16h-.146c-3.493-.078-6.844-2.946-9.964-8.527-1.88,6.818-4.573,11.266-8.228,13.593a.136.136,0,0,1-.075.022" fill="#fff"/>
          <rect id="Rectangle_4541" data-name="Rectangle 4541" width="195.537" height="7.125" transform="translate(0.149 96.727)" fill="#fff"/>
          <rect id="Rectangle_4542" data-name="Rectangle 4542" width="11.801" height="12.149" transform="translate(99.246 86.124)" fill="#fff"/>
          <path id="Path_25458" data-name="Path 25458" d="M35.039,98.273h11.8V80.512l-11.8,4.421Z" fill="#fff"/>
          <path id="Path_25459" data-name="Path 25459" d="M34.2,98.273H27.052V76.3L34.2,81.771Z" fill="#fff"/>
          <path id="Path_25460" data-name="Path 25460" d="M27.683,88.454h.825l-.361-16.74Z" fill="#fff"/>
          <rect id="Rectangle_4543" data-name="Rectangle 4543" width="9.115" height="11.46" transform="translate(155.192 87.732)" fill="#fff"/>
          <path id="Path_25461" data-name="Path 25461" d="M0,93.116,8.433,90.59v9.7H0Z" fill="#fff"/>
          <path id="Path_25462" data-name="Path 25462" d="M101.216,82.317l8.433-2.526v9.7h-8.433Z" fill="#fff"/>
          <rect id="Rectangle_4544" data-name="Rectangle 4544" width="8.433" height="9.7" transform="translate(187.253 91.221)" fill="#fff"/>
          <path id="Path_25463" data-name="Path 25463" d="M187.253,88.5l4.594-2.526v9.7h-4.594Z" fill="#fff"/>
          <path id="Path_25464" data-name="Path 25464" d="M189.953,85.183l-2.7-2.526v9.7h2.7Z" fill="#fff"/>
          <path id="Path_25465" data-name="Path 25465" d="M188.6,82.735l1.326-2.526v9.7H188.6Z" fill="#fff"/>
          <path id="Path_25466" data-name="Path 25466" d="M237.441,98.461h2c.226-14.674-.343-29.439-1.025-44.3q-.909,22.1-.971,44.3" fill="#fff"/>
          <path id="Path_25467" data-name="Path 25467" d="M226.491,98.461h2c.226-13.125-.343-26.331-1.025-39.62q-.909,19.767-.971,39.62" fill="#fff"/>
          <path id="Path_25468" data-name="Path 25468" d="M231.711,98.461h1.4c.159-10.281-.241-20.626-.72-31.035q-.639,15.483-.683,31.035" fill="#fff"/>
          <path id="Path_25469" data-name="Path 25469" d="M233.441,78.135a5.024,5.024,0,1,1,5.023,5.024,5.023,5.023,0,0,1-5.023-5.024" fill="#fff"/>
          <path id="Path_25470" data-name="Path 25470" d="M233.077,76.27c0-.331,2.412-.6,5.387-.6s5.388.269,5.388.6-2.412.6-5.388.6-5.387-.268-5.387-.6" fill="#fff"/>
          <path id="Path_25471" data-name="Path 25471" d="M234.9,66.213a3.569,3.569,0,1,1,3.568,3.568,3.568,3.568,0,0,1-3.568-3.568" fill="#fff"/>
          <path id="Path_25472" data-name="Path 25472" d="M223.372,80.412a4.142,4.142,0,1,1,4.142,4.142,4.142,4.142,0,0,1-4.142-4.142" fill="#fff"/>
          <path id="Path_25473" data-name="Path 25473" d="M288.38,33.212h-.174c-.345,26.018-2.038,41.1-2.091,66.276H290.5c.3-24.945-1.622-40.374-2.117-66.276" fill="#fff"/>
          <path id="Path_25474" data-name="Path 25474" d="M285.482,55.043c0,.269,1.281.487,2.861.487s2.861-.218,2.861-.487-1.281-.487-2.861-.487-2.861.218-2.861.487" fill="#fff"/>
          <path id="Path_25475" data-name="Path 25475" d="M285.482,53.489c0,.269,1.281.487,2.861.487s2.861-.218,2.861-.487S289.923,53,288.343,53s-2.861.218-2.861.487" fill="#fff"/>
          <path id="Path_25476" data-name="Path 25476" d="M285.482,51.935c0,.269,1.281.487,2.861.487s2.861-.218,2.861-.487-1.281-.487-2.861-.487-2.861.218-2.861.487" fill="#fff"/>
          <path id="Path_25477" data-name="Path 25477" d="M281.745,76.836c0,.775,2.953,2.785,6.6,2.785s6.6-2.01,6.6-2.785-2.955-1.4-6.6-1.4-6.6.629-6.6,1.4" fill="#fff"/>
          <path id="Path_25478" data-name="Path 25478" d="M281.745,75.225c0-.775,2.953-2.785,6.6-2.785s6.6,2.01,6.6,2.785-2.955,1.4-6.6,1.4-6.6-.629-6.6-1.4" fill="#fff"/>
          <path id="Path_25479" data-name="Path 25479" d="M284,67.208c0,.424,1.946,1.522,4.346,1.522s4.347-1.1,4.347-1.522-1.946-.768-4.347-.768-4.346.344-4.346.768" fill="#fff"/>
          <path id="Path_25480" data-name="Path 25480" d="M292.689,58.927c0-.424-1.946-.767-4.346-.767S284,58.5,284,58.927v6.906c0,.424,1.946,1.522,4.347,1.522s4.346-1.1,4.346-1.522Z" fill="#fff"/>
          <rect id="Rectangle_4545" data-name="Rectangle 4545" width="7.493" height="49.909" transform="translate(250.609 49.97)" fill="#fff"/>
          <rect id="Rectangle_4546" data-name="Rectangle 4546" width="9.174" height="46.474" transform="translate(249.769 53.405)" fill="#fff"/>
          <rect id="Rectangle_4547" data-name="Rectangle 4547" width="7.676" height="33.023" transform="translate(355.626 66.945)" fill="#fff"/>
          <path id="Path_25481" data-name="Path 25481" d="M361.562,68.309h.535l-.234-10.857Z" fill="#fff"/>
          <path id="Path_25482" data-name="Path 25482" d="M354.251,68.936v1.29h.567V71.2h-.567v.751h.567v.973h-.567v.751h.567v.973h-.567V75.4h.567v.973h-.567v.751h.567v.973h-.567v.75h.567v.973h-.567v.751h.567v.973h-.567v.751h.567v.973h-.567v.751h.567v.973h-.567v.751h.567v.973h-.567v.751h.567v.972h-.567v.751h.567v.973h-.567v.734h.567v.973h-.567V92.6h.567v.973h-.567v.734h.567v.972h-.567v.734h.567v.973h-.567v.734h.567v.973h-.567v1.274h10.426V68.936Z" fill="#fff"/>
          <path id="Path_25483" data-name="Path 25483" d="M268.821,70.125h0a13.849,13.849,0,0,0-7.577,12.346V99.19h7.577Z" fill="#fff"/>
          <rect id="Rectangle_4548" data-name="Rectangle 4548" width="195.614" height="7.128" transform="translate(195.543 96.724)" fill="#fff"/>
          <rect id="Rectangle_4549" data-name="Rectangle 4549" width="11.805" height="12.154" transform="translate(322.995 86.117)" fill="#fff"/>
          <path id="Path_25484" data-name="Path 25484" d="M309.907,98.271h11.8V74.186l-11.8,4.422Z" fill="#fff"/>
          <path id="Path_25485" data-name="Path 25485" d="M319.384,85.635h-7.148V63.655l7.148,5.472Z" fill="#fff"/>
          <path id="Path_25486" data-name="Path 25486" d="M312.867,75.812h.825l-.361-16.747Z" fill="#fff"/>
          <rect id="Rectangle_4550" data-name="Rectangle 4550" width="11.805" height="17.768" transform="translate(337.808 80.503)" fill="#fff"/>
          <rect id="Rectangle_4551" data-name="Rectangle 4551" width="11.805" height="0.227" transform="translate(337.808 79.67)" fill="#fff"/>
          <rect id="Rectangle_4552" data-name="Rectangle 4552" width="7.148" height="21.563" transform="translate(340.136 64.072)" fill="#fff"/>
          <path id="Path_25487" data-name="Path 25487" d="M341.6,75.18h-.825l.361-16.746Z" fill="#fff"/>
          <rect id="Rectangle_4553" data-name="Rectangle 4553" width="9.118" height="11.465" transform="translate(350.647 87.725)" fill="#fff"/>
          <rect id="Rectangle_4554" data-name="Rectangle 4554" width="13.986" height="6.813" transform="translate(377.182 92.377)" fill="#fff"/>
          <rect id="Rectangle_4555" data-name="Rectangle 4555" width="7.755" height="11.353" transform="translate(380.341 82.638)" fill="#fff"/>
          <path id="Path_25488" data-name="Path 25488" d="M195.556,93.112l8.274-2.527v9.7h-8.274Z" fill="#fff"/>
          <rect id="Rectangle_4556" data-name="Rectangle 4556" width="8.436" height="5.913" transform="translate(324.966 83.572)" fill="#fff"/>
          <rect id="Rectangle_4557" data-name="Rectangle 4557" width="15.264" height="17.557" transform="translate(206.362 83.363)" fill="#fff"/>
          <path id="Path_25489" data-name="Path 25489" d="M206.362,78.434,217.2,73.862V91.418H206.362Z" fill="#fff"/>
          <path id="Path_25490" data-name="Path 25490" d="M211.248,72.433l-4.886-4.572V85.417h4.886Z" fill="#fff"/>
          <path id="Path_25491" data-name="Path 25491" d="M208.805,68l2.4-2.677V80.988h-2.4Z" fill="#fff"/>
          <path id="Path_25492" data-name="Path 25492" d="M365.5,98.271h7.747c-.388-15.367-.038-29.381,1.709-40.827a2.144,2.144,0,0,0-2.645-2.084L365.5,58.71Z" fill="#fff"/>
          <path id="Path_25493" data-name="Path 25493" d="M368.206,98.271h7.268a139.846,139.846,0,0,1,1.6-38.3c0-1.3-.856-1.13-2.121-.825l-6.171,3.01Z" fill="#fff"/>
          <rect id="Rectangle_4558" data-name="Rectangle 4558" width="21.481" height="9.084" transform="translate(241.732 89.187)" fill="#fff"/>
          <path id="Path_25494" data-name="Path 25494" d="M271.005,99.19H284V84.207l-12.991-1.264Z" fill="#fff"/>
          <rect id="Rectangle_4559" data-name="Rectangle 4559" width="4.423" height="23.965" transform="translate(272.058 74.654)" fill="#fff"/>
          <path id="Path_25495" data-name="Path 25495" d="M297.583,98.271h10.488V49.97H297.583Zm4.3-43.715H299.3V52.62h2.58Zm4.673,0h-2.58V52.62h2.58Z" fill="#fff"/>
          <rect id="Rectangle_4560" data-name="Rectangle 4560" width="9.697" height="45.973" transform="translate(1048.694 55.944)" fill="#fff"/>
          <rect id="Rectangle_4561" data-name="Rectangle 4561" width="6.678" height="1.833" transform="translate(1050.204 54.111)" fill="#fff"/>
          <rect id="Rectangle_4562" data-name="Rectangle 4562" width="4.345" height="2.468" transform="translate(1051.37 51.96)" fill="#fff"/>
          <rect id="Rectangle_4563" data-name="Rectangle 4563" width="0.343" height="10.876" transform="translate(1053.371 41.084)" fill="#fff"/>
          <path id="Path_25496" data-name="Path 25496" d="M1047.887,63.488c0,.312,2.859.564,5.655.564s5.656-.252,5.656-.564-2.859-.564-5.656-.564-5.655.253-5.655.564" fill="#fff"/>
          <path id="Path_25497" data-name="Path 25497" d="M1047.887,56.085c0,.312,2.859.564,5.655.564s5.656-.252,5.656-.564-2.859-.564-5.656-.564-5.655.252-5.655.564" fill="#fff"/>
          <path id="Path_25498" data-name="Path 25498" d="M1053.223,41.048c0,.049.138.088.309.088s.309-.039.309-.088-.139-.088-.309-.088-.309.039-.309.088" fill="#fff"/>
          <path id="Path_25499" data-name="Path 25499" d="M1003.409,80.772l-7.3-.768-7.808.768V99.908h15.1Z" fill="#fff"/>
          <path id="Path_25500" data-name="Path 25500" d="M1001.489,78.468l-5.441-.768-5.823.768V97.6h11.264Z" fill="#fff"/>
          <path id="Path_25501" data-name="Path 25501" d="M1002.9,78.468l-7.04-1.152-7.04,1.152,7.04,1.792Z" fill="#fff"/>
          <path id="Path_25502" data-name="Path 25502" d="M999.953,76.548,996,75.78l-4.235.768V95.684h8.192Z" fill="#fff"/>
          <path id="Path_25503" data-name="Path 25503" d="M1158.246,86.489l18.224,17.35h-36.448Z" fill="#fff"/>
          <path id="Path_25504" data-name="Path 25504" d="M1135.224,72.312l-33.115,31.527h37.913l13.657-13.957Z" fill="#fff"/>
          <path id="Path_25505" data-name="Path 25505" d="M1114.391,80.219l-24.81,23.62h12.528l18.179-18.006Z" fill="#fff"/>
          <path id="Path_25506" data-name="Path 25506" d="M1097.44,77.456h-1.294v-7.67h-.6a2.55,2.55,0,0,0-4.869,0h-.6v3.095h-1.428V69.786h-.6a2.55,2.55,0,0,0-4.869,0h-.6v1.221a2.557,2.557,0,0,0-2.435,1.792h-.6V85.066h-1.428V72.4h-.6a2.55,2.55,0,0,0-4.869,0h-.6v30.545h25.4Z" fill="#fff"/>
          <rect id="Rectangle_4564" data-name="Rectangle 4564" width="148.168" height="5.138" transform="translate(979.274 98.701)" fill="#fff"/>
          <path id="Path_25507" data-name="Path 25507" d="M1068.63,82.693,1066.8,79.34l-1.832,3.353v18.024h3.682V82.693Z" fill="#fff"/>
          <path id="Path_25508" data-name="Path 25508" d="M1064.484,82.758a10.43,10.43,0,0,0,4.6,0,10.429,10.429,0,0,0-4.6,0" fill="#fff"/>
          <path id="Path_25509" data-name="Path 25509" d="M1064.484,85.434a10.429,10.429,0,0,0,4.6,0,10.43,10.43,0,0,0-4.6,0" fill="#fff"/>
          <path id="Path_25510" data-name="Path 25510" d="M1021.111,84.8l-.977-4.049-.977,4.049v17.284h1.964V84.8Z" fill="#fff"/>
          <path id="Path_25511" data-name="Path 25511" d="M1018.9,84.877c0,.172.549.311,1.227.311s1.228-.139,1.228-.311-.55-.311-1.228-.311-1.227.139-1.227.311" fill="#fff"/>
          <path id="Path_25512" data-name="Path 25512" d="M1018.9,88.109c0,.172.549.311,1.227.311s1.228-.139,1.228-.311-.55-.311-1.228-.311-1.227.139-1.227.311" fill="#fff"/>
          <path id="Path_25513" data-name="Path 25513" d="M1007.079,84.8l-.977-4.049-.977,4.049v17.284h1.964V84.8Z" fill="#fff"/>
          <path id="Path_25514" data-name="Path 25514" d="M1004.868,84.877c0,.172.549.311,1.227.311s1.228-.139,1.228-.311-.55-.311-1.228-.311-1.227.139-1.227.311" fill="#fff"/>
          <path id="Path_25515" data-name="Path 25515" d="M1004.868,88.109c0,.172.549.311,1.227.311s1.228-.139,1.228-.311-.55-.311-1.228-.311-1.227.139-1.227.311" fill="#fff"/>
          <rect id="Rectangle_4565" data-name="Rectangle 4565" width="29.894" height="9.097" transform="translate(1004.868 92.519)" fill="#fff"/>
          <rect id="Rectangle_4566" data-name="Rectangle 4566" width="21.956" height="9.097" transform="translate(1036.467 92.519)" fill="#fff"/>
          <rect id="Rectangle_4567" data-name="Rectangle 4567" width="25.541" height="6.707" transform="translate(1059.91 94.909)" fill="#fff"/>
          <rect id="Rectangle_4568" data-name="Rectangle 4568" width="8.812" height="9.097" transform="translate(1024.119 84.706)" fill="#fff"/>
          <path id="Path_25516" data-name="Path 25516" d="M1036.467,102.839h7.6V76.661a7.6,7.6,0,0,0-7.6,7.6Z" fill="#fff"/>
          <rect id="Rectangle_4569" data-name="Rectangle 4569" width="9.161" height="8.025" transform="translate(1008.35 88.419)" fill="#fff"/>
          <path id="Path_25517" data-name="Path 25517" d="M979.274,101.08h7.493V93.056l-7.493-6.373Z" fill="#fff"/>
          <path id="Path_25518" data-name="Path 25518" d="M1042.848,77.316h.6l-.3-8.328Z" fill="#fff"/>
          <path id="Path_25519" data-name="Path 25519" d="M1025.157,88.1h.6l-.3-7.214Z" fill="#fff"/>
          <path id="Path_25520" data-name="Path 25520" d="M1027.843,84.914h.6l-.3-8.327Z" fill="#fff"/>
          <rect id="Rectangle_4570" data-name="Rectangle 4570" width="1.259" height="0.749" transform="translate(1043.147 78.59)" fill="#fff"/>
          <rect id="Rectangle_4571" data-name="Rectangle 4571" width="1.259" height="0.749" transform="translate(1043.147 79.88)" fill="#fff"/>
          <rect id="Rectangle_4572" data-name="Rectangle 4572" width="1.259" height="0.749" transform="translate(1043.147 81.17)" fill="#fff"/>
          <rect id="Rectangle_4573" data-name="Rectangle 4573" width="1.259" height="0.749" transform="translate(1043.147 82.46)" fill="#fff"/>
          <rect id="Rectangle_4574" data-name="Rectangle 4574" width="1.259" height="0.749" transform="translate(1043.147 83.75)" fill="#fff"/>
          <rect id="Rectangle_4575" data-name="Rectangle 4575" width="1.259" height="0.749" transform="translate(1043.147 85.04)" fill="#fff"/>
          <rect id="Rectangle_4576" data-name="Rectangle 4576" width="1.259" height="0.749" transform="translate(1043.147 86.33)" fill="#fff"/>
          <rect id="Rectangle_4577" data-name="Rectangle 4577" width="1.259" height="0.749" transform="translate(1043.147 87.62)" fill="#fff"/>
          <rect id="Rectangle_4578" data-name="Rectangle 4578" width="1.259" height="0.749" transform="translate(1043.147 88.91)" fill="#fff"/>
          <rect id="Rectangle_4579" data-name="Rectangle 4579" width="1.259" height="0.749" transform="translate(1043.147 90.201)" fill="#fff"/>
          <rect id="Rectangle_4580" data-name="Rectangle 4580" width="1.259" height="0.749" transform="translate(1043.147 91.491)" fill="#fff"/>
          <rect id="Rectangle_4581" data-name="Rectangle 4581" width="1.259" height="0.749" transform="translate(1043.147 77.316)" fill="#fff"/>
          <path id="Path_25521" data-name="Path 25521" d="M739.362,77.916l1.325-4.64,1.324,4.64V97.725h-2.662V77.916Z" fill="#fff"/>
          <path id="Path_25522" data-name="Path 25522" d="M742.36,78c0,.2-.745.356-1.664.356s-1.664-.159-1.664-.356.745-.356,1.664-.356,1.664.159,1.664.356" fill="#fff"/>
          <path id="Path_25523" data-name="Path 25523" d="M742.36,81.708c0,.2-.745.356-1.664.356s-1.664-.159-1.664-.356.745-.356,1.664-.356,1.664.159,1.664.356" fill="#fff"/>
          <path id="Path_25524" data-name="Path 25524" d="M742.36,82.24c0,.2-.745.356-1.664.356s-1.664-.159-1.664-.356.745-.356,1.664-.356,1.664.159,1.664.356" fill="#fff"/>
          <rect id="Rectangle_4582" data-name="Rectangle 4582" width="3.881" height="4.935" transform="translate(738.756 92.789)" fill="#fff"/>
          <path id="Path_25525" data-name="Path 25525" d="M742.637,92.789h-3.881l.625-2.968h2.63Z" fill="#fff"/>
          <path id="Path_25526" data-name="Path 25526" d="M604.157,75.351l.9-5.964.9,5.964V100.81h-1.809V75.351Z" fill="#fff"/>
          <path id="Path_25527" data-name="Path 25527" d="M606.194,75.466c0,.253-.506.458-1.131.458s-1.13-.205-1.13-.458.506-.458,1.13-.458,1.131.2,1.131.458" fill="#fff"/>
          <path id="Path_25528" data-name="Path 25528" d="M606.194,80.225c0,.253-.506.458-1.131.458s-1.13-.205-1.13-.458.506-.458,1.13-.458,1.131.205,1.131.458" fill="#fff"/>
          <path id="Path_25529" data-name="Path 25529" d="M606.194,80.909c0,.253-.506.458-1.131.458s-1.13-.2-1.13-.458.506-.458,1.13-.458,1.131.205,1.131.458" fill="#fff"/>
          <rect id="Rectangle_4583" data-name="Rectangle 4583" width="2.637" height="6.343" transform="translate(603.745 94.467)" fill="#fff"/>
          <path id="Path_25530" data-name="Path 25530" d="M606.382,94.467h-2.637l.425-3.815h1.787Z" fill="#fff"/>
          <rect id="Rectangle_4584" data-name="Rectangle 4584" width="26.553" height="7.205" transform="translate(678.881 79.382)" fill="#fff"/>
          <rect id="Rectangle_4585" data-name="Rectangle 4585" width="24.523" height="2.865" transform="translate(679.896 77.329)" fill="#fff"/>
          <path id="Path_25531" data-name="Path 25531" d="M680.018,78.7c0-5.107,5.435-9.246,12.139-9.246S704.3,73.591,704.3,78.7s-5.435,9.246-12.139,9.246-12.139-4.139-12.139-9.246" fill="#fff"/>
          <path id="Path_25532" data-name="Path 25532" d="M692.269,68.959l-.114-3.139-.123,3.139-.132.9h.5Z" fill="#fff"/>
          <path id="Path_25533" data-name="Path 25533" d="M691.668,67.99a.489.489,0,1,0,.489-.487.489.489,0,0,0-.489.487" fill="#fff"/>
          <path id="Path_25534" data-name="Path 25534" d="M691.836,66.983a.321.321,0,1,0,.321-.321.321.321,0,0,0-.321.321" fill="#fff"/>
          <path id="Path_25535" data-name="Path 25535" d="M691.836,68.918a.321.321,0,1,0,.321-.321.321.321,0,0,0-.321.321" fill="#fff"/>
          <rect id="Rectangle_4586" data-name="Rectangle 4586" width="36.54" height="9.429" transform="translate(673.957 87.279)" fill="#fff"/>
          <path id="Path_25536" data-name="Path 25536" d="M681.543,85.324h21.229l7.234,2.247h-35.7Z" fill="#fff"/>
          <rect id="Rectangle_4587" data-name="Rectangle 4587" width="195.676" height="7.13" transform="translate(587.501 96.709)" fill="#fff"/>
          <rect id="Rectangle_4588" data-name="Rectangle 4588" width="13.627" height="10.66" transform="translate(769.55 89.614)" fill="#fff"/>
          <rect id="Rectangle_4589" data-name="Rectangle 4589" width="13.627" height="10.66" transform="translate(754.343 89.614)" fill="#fff"/>
          <path id="Path_25537" data-name="Path 25537" d="M759.221,83.814l4.877,5.8h-9.754Z" fill="#fff"/>
          <rect id="Rectangle_4590" data-name="Rectangle 4590" width="0.139" height="5.971" transform="translate(759.151 79.809)" fill="#fff"/>
          <path id="Path_25538" data-name="Path 25538" d="M772.683,85.592l3.382,4.021H769.3Z" fill="#fff"/>
          <rect id="Rectangle_4591" data-name="Rectangle 4591" width="0.097" height="4.141" transform="translate(772.634 82.814)" fill="#fff"/>
          <path id="Path_25539" data-name="Path 25539" d="M748.727,91l4.877,5.8H743.85Z" fill="#fff"/>
          <rect id="Rectangle_4592" data-name="Rectangle 4592" width="0.139" height="5.971" transform="translate(748.658 86.999)" fill="#fff"/>
          <path id="Path_25540" data-name="Path 25540" d="M663.409,91l4.877,5.8h-9.754Z" fill="#fff"/>
          <rect id="Rectangle_4593" data-name="Rectangle 4593" width="0.139" height="5.971" transform="translate(663.339 86.999)" fill="#fff"/>
          <path id="Path_25541" data-name="Path 25541" d="M731.664,71.792l4.877,5.8h-9.754Z" fill="#fff"/>
          <rect id="Rectangle_4594" data-name="Rectangle 4594" width="0.139" height="5.971" transform="translate(731.594 67.787)" fill="#fff"/>
          <rect id="Rectangle_4595" data-name="Rectangle 4595" width="7.442" height="15.071" transform="translate(587.501 84.205)" fill="#fff"/>
          <rect id="Rectangle_4596" data-name="Rectangle 4596" width="13.873" height="11.077" transform="translate(591.222 88.199)" fill="#fff"/>
          <rect id="Rectangle_4597" data-name="Rectangle 4597" width="13.873" height="16.38" transform="translate(614.234 82.896)" fill="#fff"/>
          <rect id="Rectangle_4598" data-name="Rectangle 4598" width="13.873" height="11.077" transform="translate(643.316 88.199)" fill="#fff"/>
          <rect id="Rectangle_4599" data-name="Rectangle 4599" width="13.873" height="20.531" transform="translate(627.972 78.744)" fill="#fff"/>
          <rect id="Rectangle_4600" data-name="Rectangle 4600" width="17.08" height="39.674" transform="translate(622.892 59.602)" fill="#fff"/>
          <rect id="Rectangle_4601" data-name="Rectangle 4601" width="11.392" height="28.298" transform="translate(609.17 70.977)" fill="#fff"/>
          <rect id="Rectangle_4602" data-name="Rectangle 4602" width="9.475" height="23.536" transform="translate(727.186 73.358)" fill="#fff"/>
          <rect id="Rectangle_4603" data-name="Rectangle 4603" width="7.036" height="25.356" transform="translate(728.405 71.539)" fill="#fff"/>
          <rect id="Rectangle_4604" data-name="Rectangle 4604" width="10.941" height="17.799" transform="translate(718.094 80.471)" fill="#fff"/>
          <rect id="Rectangle_4605" data-name="Rectangle 4605" width="10.414" height="23.581" transform="translate(645.046 67.737)" fill="#fff"/>
          <rect id="Rectangle_4606" data-name="Rectangle 4606" width="5.632" height="26.123" transform="translate(647.437 65.195)" fill="#fff"/>
          <rect id="Rectangle_4607" data-name="Rectangle 4607" width="0.326" height="20.252" transform="translate(591.106 76.245)" fill="#fff"/>
        </g>
      </g>
    </g>
    <g id="Group_8001" data-name="Group 8001" transform="translate(1290.832 9005.36)">
      <path id="Path_25542" data-name="Path 25542" d="M92.022,39.683,91.1,33.559l-.924,6.124v26.14h1.857V39.683Z" fill="#fff"/>
      <g id="Group_8000" data-name="Group 8000">
        <g id="Group_7999" data-name="Group 7999" clip-path="url(#clip-path-2)">
          <path id="Path_25543" data-name="Path 25543" d="M89.93,39.8c0,.26.52.47,1.161.47s1.161-.21,1.161-.47-.52-.47-1.161-.47-1.161.21-1.161.47" fill="#fff"/>
          <path id="Path_25544" data-name="Path 25544" d="M89.93,44.687c0,.26.52.47,1.161.47s1.161-.21,1.161-.47-.52-.47-1.161-.47-1.161.211-1.161.47" fill="#fff"/>
          <path id="Path_25545" data-name="Path 25545" d="M89.93,45.39c0,.259.52.47,1.161.47s1.161-.211,1.161-.47-.52-.47-1.161-.47-1.161.21-1.161.47" fill="#fff"/>
          <rect id="Rectangle_4609" data-name="Rectangle 4609" width="2.708" height="6.513" transform="translate(89.737 59.31)" fill="#fff"/>
          <path id="Path_25546" data-name="Path 25546" d="M89.737,59.31h2.708l-.436-3.917H90.173Z" fill="#fff"/>
          <path id="Path_25547" data-name="Path 25547" d="M97.861,33.464l-1.144-7.581-1.144,7.581V65.823h2.3V33.464Z" fill="#fff"/>
          <path id="Path_25548" data-name="Path 25548" d="M95.272,33.609c0,.321.643.582,1.437.582s1.437-.261,1.437-.582-.643-.582-1.437-.582-1.437.261-1.437.582" fill="#fff"/>
          <path id="Path_25549" data-name="Path 25549" d="M95.272,39.659c0,.321.643.582,1.437.582s1.437-.261,1.437-.582-.643-.582-1.437-.582-1.437.261-1.437.582" fill="#fff"/>
          <path id="Path_25550" data-name="Path 25550" d="M95.272,40.528c0,.321.643.582,1.437.582s1.437-.261,1.437-.582-.643-.582-1.437-.582-1.437.261-1.437.582" fill="#fff"/>
          <rect id="Rectangle_4610" data-name="Rectangle 4610" width="3.352" height="8.062" transform="translate(95.033 57.761)" fill="#fff"/>
          <path id="Path_25551" data-name="Path 25551" d="M95.033,57.761h3.352l-.54-4.849H95.573Z" fill="#fff"/>
          <path id="Path_25552" data-name="Path 25552" d="M55.812,39.683l.924-6.124.924,6.124v26.14H55.8V39.683Z" fill="#fff"/>
          <path id="Path_25553" data-name="Path 25553" d="M57.9,39.8c0,.26-.52.47-1.161.47s-1.161-.21-1.161-.47.52-.47,1.161-.47,1.161.21,1.161.47" fill="#fff"/>
          <path id="Path_25554" data-name="Path 25554" d="M57.9,44.687c0,.26-.52.47-1.161.47s-1.161-.21-1.161-.47.52-.47,1.161-.47,1.161.211,1.161.47" fill="#fff"/>
          <path id="Path_25555" data-name="Path 25555" d="M57.9,45.39c0,.259-.52.47-1.161.47s-1.161-.211-1.161-.47.52-.47,1.161-.47,1.161.21,1.161.47" fill="#fff"/>
          <rect id="Rectangle_4611" data-name="Rectangle 4611" width="2.708" height="6.513" transform="translate(55.388 59.31)" fill="#fff"/>
          <path id="Path_25556" data-name="Path 25556" d="M58.1,59.31H55.388l.436-3.917H57.66Z" fill="#fff"/>
          <path id="Path_25557" data-name="Path 25557" d="M49.972,33.464l1.144-7.581,1.144,7.581V65.823h-2.3V33.464Z" fill="#fff"/>
          <path id="Path_25558" data-name="Path 25558" d="M52.561,33.609c0,.321-.643.582-1.437.582s-1.437-.261-1.437-.582.643-.582,1.437-.582,1.437.261,1.437.582" fill="#fff"/>
          <path id="Path_25559" data-name="Path 25559" d="M52.561,39.659c0,.321-.643.582-1.437.582s-1.437-.261-1.437-.582.643-.582,1.437-.582,1.437.261,1.437.582" fill="#fff"/>
          <path id="Path_25560" data-name="Path 25560" d="M52.561,40.528c0,.321-.643.582-1.437.582s-1.437-.261-1.437-.582.643-.582,1.437-.582,1.437.261,1.437.582" fill="#fff"/>
          <rect id="Rectangle_4612" data-name="Rectangle 4612" width="3.352" height="8.062" transform="translate(49.448 57.761)" fill="#fff"/>
          <path id="Path_25561" data-name="Path 25561" d="M52.8,57.761H49.448l.54-4.849H52.26Z" fill="#fff"/>
          <rect id="Rectangle_4613" data-name="Rectangle 4613" width="28.297" height="16.634" transform="translate(59.76 49.189)" fill="#fff"/>
          <rect id="Rectangle_4614" data-name="Rectangle 4614" width="16.892" height="4.583" transform="translate(65.462 44.843)" fill="#fff"/>
          <rect id="Rectangle_4615" data-name="Rectangle 4615" width="15.601" height="0.818" transform="translate(66.108 44.006)" fill="#fff"/>
          <path id="Path_25562" data-name="Path 25562" d="M82.193,49.179h5.433c0-1.953-2.432-3.537-5.433-3.537Z" fill="#fff"/>
          <path id="Path_25563" data-name="Path 25563" d="M65.462,49.179H60.029c0-1.953,2.432-3.537,5.433-3.537Z" fill="#fff"/>
          <path id="Path_25564" data-name="Path 25564" d="M66.888,44.006c0-2.953,3.143-5.348,7.02-5.348s7.021,2.4,7.021,5.348-3.143,5.348-7.021,5.348-7.02-2.4-7.02-5.348" fill="#fff"/>
          <path id="Path_25565" data-name="Path 25565" d="M74.046,37.683l-.139-1.068-.139,1.068-.084.307h.448Z" fill="#fff"/>
          <path id="Path_25566" data-name="Path 25566" d="M73.2,38.659a.725.725,0,1,0,.712-.861.8.8,0,0,0-.712.861" fill="#fff"/>
          <rect id="Rectangle_4616" data-name="Rectangle 4616" width="50.676" height="5.014" transform="translate(48.57 60.809)" fill="#fff"/>
          <rect id="Rectangle_4617" data-name="Rectangle 4617" width="36.514" height="3.107" transform="translate(55.721 59.46)" fill="#fff"/>
          <path id="Path_25567" data-name="Path 25567" d="M63.3,57.506H84.515l7.229,2.245H56.072Z" fill="#fff"/>
          <rect id="Rectangle_4618" data-name="Rectangle 4618" width="10.831" height="34.839" transform="translate(12.398 31.198)" fill="#fff"/>
          <rect id="Rectangle_4619" data-name="Rectangle 4619" width="13.261" height="32.441" transform="translate(11.183 33.596)" fill="#fff"/>
          <path id="Path_25568" data-name="Path 25568" d="M16.2,35.063h.529L16.5,20.433Z" fill="#fff"/>
          <path id="Path_25569" data-name="Path 25569" d="M18.857,35.063h.529l-.231-14.63Z" fill="#fff"/>
          <rect id="Rectangle_4620" data-name="Rectangle 4620" width="7.673" height="33.01" transform="translate(176.112 33.116)" fill="#fff"/>
          <path id="Path_25570" data-name="Path 25570" d="M182.045,34.48h.535l-.234-10.853Z" fill="#fff"/>
          <path id="Path_25571" data-name="Path 25571" d="M174.737,35.107V36.4h.566v.973h-.566v.75h.566v.973h-.566v.75h.566v.973h-.566v.75h.566v.973h-.566v.751h.566v.972h-.566v.751h.566v.972h-.566v.751h.566v.972h-.566v.751h.566v.972h-.566v.751h.566v.972h-.566V51.9h.566v.973h-.566v.75h.566V54.6h-.566v.75h.566v.973h-.566v.733h.566v.973h-.566v.734h.566v.972h-.566v.734h.566v.972h-.566v.734h.566v.972h-.566v.734h.566v.972h-.566v1.274h10.422V35.107Z" fill="#fff"/>
          <path id="Path_25572" data-name="Path 25572" d="M172.551,36.926h0a13.844,13.844,0,0,0-7.574,12.342V65.98h7.574Z" fill="#fff"/>
          <path id="Path_25573" data-name="Path 25573" d="M142.467,66.386v-14.4l-2.97-.552V66.386h-1.316V42.655l1.316.373v.913l2.97.807V43.87l1.239.35V66.386Zm0-15.922V46.231l-2.97-.774v4.418Z" fill="#fff"/>
          <path id="Path_25574" data-name="Path 25574" d="M119.284,68.36V53.3l-2.1-.307V68.354l-1.116,0V45.431l1.116.233v.787l2.1.424V46.1l1.084.226V68.364Zm0-16.467V48.239l-2.1-.408V51.57Z" fill="#fff"/>
          <path id="Path_25575" data-name="Path 25575" d="M106.845,62.333l-.86-3.238c21.906-5.817,50.449-1.324,51.654-1.13l-.533,3.308c-.288-.046-29.055-4.572-50.261,1.06" fill="#fff"/>
          <path id="Path_25576" data-name="Path 25576" d="M108.163,59.828a.207.207,0,0,1-.175-.095.21.21,0,0,1,.06-.29c3.494-2.283,6.172-6.9,7.959-13.722a.209.209,0,0,1,.387-.045c3.024,5.663,6.248,8.572,9.58,8.645,3.885.1,8.117-3.68,12.56-11.189a.235.235,0,0,1,.183-.1.209.209,0,0,1,.18.107C141.8,48.3,145.469,54.005,150.635,57.1a.209.209,0,1,1-.215.359c-5.145-3.08-8.806-8.669-11.711-13.8-4.407,7.356-8.647,11.085-12.607,11.085h-.137c-3.4-.075-6.659-2.9-9.689-8.4-1.834,6.736-4.453,11.141-8,13.458a.211.211,0,0,1-.115.034" fill="#fff"/>
          <path id="Path_25577" data-name="Path 25577" d="M111.711,60.853a.142.142,0,0,1-.118-.064.14.14,0,0,1,.043-.193c3.6-2.294,6.361-6.924,8.2-13.763a.139.139,0,0,1,.257-.031c3.116,5.685,6.444,8.607,9.892,8.683l.14,0c3.987,0,8.3-3.776,12.824-11.226a.14.14,0,0,1,.12-.068h0a.144.144,0,0,1,.12.07c2.985,5.176,6.755,10.886,12.073,13.989a.139.139,0,0,1,.051.191.141.141,0,0,1-.191.05c-5.3-3.1-9.072-8.733-12.058-13.887-4.533,7.406-8.886,11.16-12.94,11.16h-.146c-3.493-.078-6.844-2.946-9.964-8.527-1.88,6.818-4.573,11.266-8.228,13.593a.136.136,0,0,1-.075.022" fill="#fff"/>
          <rect id="Rectangle_4621" data-name="Rectangle 4621" width="195.537" height="7.125" transform="translate(0.149 63.515)" fill="#fff"/>
          <rect id="Rectangle_4622" data-name="Rectangle 4622" width="11.801" height="12.149" transform="translate(99.246 52.912)" fill="#fff"/>
          <path id="Path_25578" data-name="Path 25578" d="M35.039,65.062h11.8V47.3l-11.8,4.421Z" fill="#fff"/>
          <path id="Path_25579" data-name="Path 25579" d="M34.2,65.062H27.052V43.091L34.2,48.56Z" fill="#fff"/>
          <path id="Path_25580" data-name="Path 25580" d="M27.683,55.242h.825L28.147,38.5Z" fill="#fff"/>
          <rect id="Rectangle_4623" data-name="Rectangle 4623" width="9.115" height="11.46" transform="translate(155.192 54.52)" fill="#fff"/>
          <path id="Path_25581" data-name="Path 25581" d="M0,59.9l8.433-2.526v9.7H0Z" fill="#fff"/>
          <path id="Path_25582" data-name="Path 25582" d="M101.216,49.1l8.433-2.526v9.7h-8.433Z" fill="#fff"/>
          <rect id="Rectangle_4624" data-name="Rectangle 4624" width="8.433" height="9.7" transform="translate(187.253 58.009)" fill="#fff"/>
          <path id="Path_25583" data-name="Path 25583" d="M187.253,55.286l4.594-2.526v9.7h-4.594Z" fill="#fff"/>
          <path id="Path_25584" data-name="Path 25584" d="M189.953,51.971l-2.7-2.526v9.7h2.7Z" fill="#fff"/>
          <path id="Path_25585" data-name="Path 25585" d="M188.6,49.523,189.929,47v9.7H188.6Z" fill="#fff"/>
          <path id="Path_25586" data-name="Path 25586" d="M237.441,65.249h2c.226-14.674-.343-29.439-1.025-44.3q-.909,22.1-.971,44.3" fill="#fff"/>
          <path id="Path_25587" data-name="Path 25587" d="M226.491,65.249h2c.226-13.125-.343-26.331-1.025-39.62q-.909,19.767-.971,39.62" fill="#fff"/>
          <path id="Path_25588" data-name="Path 25588" d="M231.711,65.249h1.4c.159-10.281-.241-20.626-.72-31.035q-.639,15.483-.683,31.035" fill="#fff"/>
          <path id="Path_25589" data-name="Path 25589" d="M233.441,44.924a5.024,5.024,0,1,1,5.023,5.024,5.023,5.023,0,0,1-5.023-5.024" fill="#fff"/>
          <path id="Path_25590" data-name="Path 25590" d="M233.077,43.058c0-.331,2.412-.6,5.387-.6s5.388.269,5.388.6-2.412.6-5.388.6-5.387-.268-5.387-.6" fill="#fff"/>
          <path id="Path_25591" data-name="Path 25591" d="M234.9,33a3.569,3.569,0,1,1,3.568,3.568A3.568,3.568,0,0,1,234.9,33" fill="#fff"/>
          <path id="Path_25592" data-name="Path 25592" d="M223.372,47.2a4.142,4.142,0,1,1,4.142,4.142,4.142,4.142,0,0,1-4.142-4.142" fill="#fff"/>
          <path id="Path_25593" data-name="Path 25593" d="M288.38,0h-.174c-.345,26.018-2.038,41.1-2.091,66.276H290.5c.3-24.945-1.622-40.374-2.117-66.276" fill="#fff"/>
          <path id="Path_25594" data-name="Path 25594" d="M285.482,21.831c0,.269,1.281.487,2.861.487s2.861-.218,2.861-.487-1.281-.487-2.861-.487-2.861.218-2.861.487" fill="#fff"/>
          <path id="Path_25595" data-name="Path 25595" d="M285.482,20.277c0,.269,1.281.487,2.861.487s2.861-.218,2.861-.487-1.281-.487-2.861-.487-2.861.218-2.861.487" fill="#fff"/>
          <path id="Path_25596" data-name="Path 25596" d="M285.482,18.724c0,.269,1.281.487,2.861.487s2.861-.218,2.861-.487-1.281-.487-2.861-.487-2.861.218-2.861.487" fill="#fff"/>
          <path id="Path_25597" data-name="Path 25597" d="M281.745,43.624c0,.775,2.953,2.785,6.6,2.785s6.6-2.01,6.6-2.785-2.955-1.4-6.6-1.4-6.6.629-6.6,1.4" fill="#fff"/>
          <path id="Path_25598" data-name="Path 25598" d="M281.745,42.013c0-.775,2.953-2.785,6.6-2.785s6.6,2.01,6.6,2.785-2.955,1.4-6.6,1.4-6.6-.629-6.6-1.4" fill="#fff"/>
          <path id="Path_25599" data-name="Path 25599" d="M284,34c0,.424,1.946,1.522,4.346,1.522s4.347-1.1,4.347-1.522-1.946-.768-4.347-.768S284,33.572,284,34" fill="#fff"/>
          <path id="Path_25600" data-name="Path 25600" d="M292.689,25.716c0-.424-1.946-.767-4.346-.767s-4.347.343-4.347.767v6.906c0,.424,1.946,1.522,4.347,1.522s4.346-1.1,4.346-1.522Z" fill="#fff"/>
          <rect id="Rectangle_4625" data-name="Rectangle 4625" width="7.493" height="49.909" transform="translate(250.609 16.758)" fill="#fff"/>
          <rect id="Rectangle_4626" data-name="Rectangle 4626" width="9.174" height="46.474" transform="translate(249.769 20.193)" fill="#fff"/>
          <rect id="Rectangle_4627" data-name="Rectangle 4627" width="7.676" height="33.023" transform="translate(355.626 33.733)" fill="#fff"/>
          <path id="Path_25601" data-name="Path 25601" d="M361.562,35.1h.535l-.234-10.857Z" fill="#fff"/>
          <path id="Path_25602" data-name="Path 25602" d="M354.251,35.724v1.29h.567v.972h-.567v.751h.567v.973h-.567v.751h.567v.973h-.567v.751h.567v.973h-.567v.751h.567v.973h-.567v.75h.567v.973h-.567v.751h.567v.973h-.567v.751h.567v.973h-.567V50.8h.567v.973h-.567v.751h.567V53.5h-.567v.751h.567v.972h-.567v.751h.567v.973h-.567v.734h.567v.973h-.567v.734h.567v.973h-.567V61.1h.567v.972h-.567V62.8h.567v.973h-.567v.734h.567v.973h-.567v1.274h10.426V35.724Z" fill="#fff"/>
          <path id="Path_25603" data-name="Path 25603" d="M268.821,36.913h0a13.849,13.849,0,0,0-7.577,12.346V65.978h7.577Z" fill="#fff"/>
          <rect id="Rectangle_4628" data-name="Rectangle 4628" width="195.614" height="7.128" transform="translate(195.543 63.512)" fill="#fff"/>
          <rect id="Rectangle_4629" data-name="Rectangle 4629" width="11.805" height="12.154" transform="translate(322.995 52.905)" fill="#fff"/>
          <path id="Path_25604" data-name="Path 25604" d="M309.907,65.059h11.8V40.974l-11.8,4.422Z" fill="#fff"/>
          <path id="Path_25605" data-name="Path 25605" d="M319.384,52.424h-7.148V30.444l7.148,5.472Z" fill="#fff"/>
          <path id="Path_25606" data-name="Path 25606" d="M312.867,42.6h.825l-.361-16.747Z" fill="#fff"/>
          <rect id="Rectangle_4630" data-name="Rectangle 4630" width="11.805" height="17.768" transform="translate(337.808 47.291)" fill="#fff"/>
          <rect id="Rectangle_4631" data-name="Rectangle 4631" width="11.805" height="0.227" transform="translate(337.808 46.458)" fill="#fff"/>
          <rect id="Rectangle_4632" data-name="Rectangle 4632" width="7.148" height="21.563" transform="translate(340.136 30.86)" fill="#fff"/>
          <path id="Path_25607" data-name="Path 25607" d="M341.6,41.968h-.825l.361-16.746Z" fill="#fff"/>
          <rect id="Rectangle_4633" data-name="Rectangle 4633" width="9.118" height="11.465" transform="translate(350.647 54.513)" fill="#fff"/>
          <rect id="Rectangle_4634" data-name="Rectangle 4634" width="13.986" height="6.813" transform="translate(377.182 59.165)" fill="#fff"/>
          <rect id="Rectangle_4635" data-name="Rectangle 4635" width="7.755" height="11.353" transform="translate(380.341 49.426)" fill="#fff"/>
          <path id="Path_25608" data-name="Path 25608" d="M195.556,59.9l8.274-2.527v9.7h-8.274Z" fill="#fff"/>
          <rect id="Rectangle_4636" data-name="Rectangle 4636" width="8.436" height="5.913" transform="translate(324.966 50.36)" fill="#fff"/>
          <rect id="Rectangle_4637" data-name="Rectangle 4637" width="15.264" height="17.557" transform="translate(206.362 50.151)" fill="#fff"/>
          <path id="Path_25609" data-name="Path 25609" d="M206.362,45.223,217.2,40.651V58.207H206.362Z" fill="#fff"/>
          <path id="Path_25610" data-name="Path 25610" d="M211.248,39.221l-4.886-4.572V52.205h4.886Z" fill="#fff"/>
          <path id="Path_25611" data-name="Path 25611" d="M208.805,34.792l2.4-2.677V47.776h-2.4Z" fill="#fff"/>
          <path id="Path_25612" data-name="Path 25612" d="M365.5,65.059h7.747c-.388-15.367-.038-29.381,1.709-40.827a2.144,2.144,0,0,0-2.645-2.084L365.5,25.5Z" fill="#fff"/>
          <path id="Path_25613" data-name="Path 25613" d="M368.206,65.059h7.268a139.846,139.846,0,0,1,1.6-38.3c0-1.3-.856-1.13-2.121-.825l-6.171,3.01Z" fill="#fff"/>
          <rect id="Rectangle_4638" data-name="Rectangle 4638" width="21.481" height="9.084" transform="translate(241.732 55.975)" fill="#fff"/>
          <path id="Path_25614" data-name="Path 25614" d="M271.005,65.979H284V51l-12.991-1.264Z" fill="#fff"/>
          <rect id="Rectangle_4639" data-name="Rectangle 4639" width="4.423" height="23.965" transform="translate(272.058 41.442)" fill="#fff"/>
          <path id="Path_25615" data-name="Path 25615" d="M297.583,65.059h10.488v-48.3H297.583Zm4.3-43.715H299.3V19.408h2.58Zm4.673,0h-2.58V19.408h2.58Z" fill="#fff"/>
        </g>
      </g>
    </g>
    <g id="Group_8003" data-name="Group 8003" transform="translate(1682 9021.145)">
      <g id="Group_8002" data-name="Group 8002" clip-path="url(#clip-path-3)">
        <path id="Path_25616" data-name="Path 25616" d="M91.857,52.291h15.079V0H91.857ZM102.722,9.948c-.352,1.258-1.733,3.044-3.326,3.044s-2.973-1.786-3.325-3.044L93.788,1.784H105Z" fill="#fff"/>
        <rect id="Rectangle_4641" data-name="Rectangle 4641" width="5.601" height="33.388" transform="translate(69.338 18.896)" fill="#fff"/>
        <path id="Path_25617" data-name="Path 25617" d="M69.324,32.588c-.266-9.474-7.333-13.25-10.081-13.692L59.23,16.97c-2.144,0-9.816,5.746-10.094,15.618v0q-.014.489-.014.985c0,.33,0,.659.014.985V52.284h20.2v-19.7ZM56.7,23.206a.952.952,0,1,1,.952-.952.952.952,0,0,1-.952.952" fill="#fff"/>
        <rect id="Rectangle_4642" data-name="Rectangle 4642" width="0.337" height="11.109" transform="translate(60.287 11.381)" fill="#fff"/>
        <rect id="Rectangle_4643" data-name="Rectangle 4643" width="0.337" height="11.109" transform="translate(64.158 15.966)" fill="#fff"/>
        <rect id="Rectangle_4644" data-name="Rectangle 4644" width="0.337" height="11.109" transform="translate(58.893 15.517)" fill="#fff"/>
        <path id="Path_25618" data-name="Path 25618" d="M71.753,19.765h.771L72.139,9.029Z" fill="#fff"/>
        <rect id="Rectangle_4645" data-name="Rectangle 4645" width="106.936" height="3.673" transform="translate(0 51.182)" fill="#fff"/>
        <rect id="Rectangle_4646" data-name="Rectangle 4646" width="9.948" height="13.257" transform="translate(0 39.787)" fill="#fff"/>
        <rect id="Rectangle_4647" data-name="Rectangle 4647" width="9.948" height="19.75" transform="translate(8.8 33.294)" fill="#fff"/>
        <path id="Path_25619" data-name="Path 25619" d="M13.389,33.544h.771l-.385-10.736Z" fill="#fff"/>
        <rect id="Rectangle_4648" data-name="Rectangle 4648" width="8.752" height="0.629" transform="translate(10.66 34.626)" fill="#fff"/>
        <rect id="Rectangle_4649" data-name="Rectangle 4649" width="8.752" height="0.629" transform="translate(10.66 36.205)" fill="#fff"/>
        <rect id="Rectangle_4650" data-name="Rectangle 4650" width="8.752" height="0.629" transform="translate(10.66 37.784)" fill="#fff"/>
        <rect id="Rectangle_4651" data-name="Rectangle 4651" width="8.752" height="0.629" transform="translate(10.66 39.361)" fill="#fff"/>
        <rect id="Rectangle_4652" data-name="Rectangle 4652" width="8.752" height="0.629" transform="translate(10.66 40.94)" fill="#fff"/>
        <rect id="Rectangle_4653" data-name="Rectangle 4653" width="8.752" height="0.629" transform="translate(10.66 42.519)" fill="#fff"/>
        <rect id="Rectangle_4654" data-name="Rectangle 4654" width="8.752" height="0.629" transform="translate(10.66 44.097)" fill="#fff"/>
        <rect id="Rectangle_4655" data-name="Rectangle 4655" width="8.752" height="0.629" transform="translate(10.66 45.675)" fill="#fff"/>
        <rect id="Rectangle_4656" data-name="Rectangle 4656" width="8.752" height="0.629" transform="translate(10.66 47.253)" fill="#fff"/>
        <rect id="Rectangle_4657" data-name="Rectangle 4657" width="8.752" height="0.629" transform="translate(10.66 48.831)" fill="#fff"/>
        <rect id="Rectangle_4658" data-name="Rectangle 4658" width="8.752" height="0.629" transform="translate(10.66 50.41)" fill="#fff"/>
        <rect id="Rectangle_4659" data-name="Rectangle 4659" width="9.948" height="13.257" transform="translate(72.139 39.787)" fill="#fff"/>
        <path id="Path_25620" data-name="Path 25620" d="M80.939,53.044h9.948V29.851l-9.948,4.591Z" fill="#fff"/>
        <path id="Path_25621" data-name="Path 25621" d="M86.675,33.544h.771l-.385-10.736Z" fill="#fff"/>
        <path id="Path_25622" data-name="Path 25622" d="M88.971,33.544h.771l-.385-10.736Z" fill="#fff"/>
        <path id="Path_25623" data-name="Path 25623" d="M31.967,19.232h0a16.521,16.521,0,0,0-9.039,14.73V53.909h9.039Z" fill="#fff"/>
        <path id="Path_25624" data-name="Path 25624" d="M33.975,27.769h0c5.546,2.123,9.039,6.415,9.039,11.1V53.909H33.975Z" fill="#fff"/>
        <rect id="Rectangle_4660" data-name="Rectangle 4660" width="6.098" height="8.664" transform="translate(40.934 42.519)" fill="#fff"/>
      </g>
    </g>
  </g>
</svg>
