<svg xmlns="http://www.w3.org/2000/svg" width="318.066" height="52.908" viewBox="0 0 318.066 52.908">
  <g id="Group_12437" data-name="Group 12437" transform="translate(11126.82 -2682.313)">
    <path id="Path_25895" data-name="Path 25895" d="M256.938,72.37a.634.634,0,0,1,.161.452v19.87A10.238,10.238,0,0,1,255.732,98a9.381,9.381,0,0,1-3.821,3.6,11.876,11.876,0,0,1-5.576,1.281,17.952,17.952,0,0,1-4.079-.473,13.759,13.759,0,0,1-3.52-1.292.5.5,0,0,1-.28-.473,1.171,1.171,0,0,1,.11-.43l.9-2.109a.53.53,0,0,1,.516-.3.867.867,0,0,1,.345.065,20.371,20.371,0,0,0,2.939.883,13.907,13.907,0,0,0,3.089.388,6.984,6.984,0,0,0,3.42-.822,5.784,5.784,0,0,0,2.3-2.282,6.983,6.983,0,0,0,.839-3.38l.043-2.5a9.689,9.689,0,0,1-7.9,3.943,10.185,10.185,0,0,1-5.382-1.474,10.632,10.632,0,0,1-3.833-3.983,11.1,11.1,0,0,1-1.4-5.5,12.2,12.2,0,0,1,1.389-5.834,10.479,10.479,0,0,1,3.818-4.093,10.111,10.111,0,0,1,5.392-1.485,9.613,9.613,0,0,1,4.715,1.173,9.788,9.788,0,0,1,3.5,3.285l.775-3.531a.626.626,0,0,1,.624-.452h1.83a.577.577,0,0,1,.438.172M249.5,88.99a6.838,6.838,0,0,0,3.5-6.023,7.034,7.034,0,0,0-.936-3.6,6.759,6.759,0,0,0-2.583-2.541,7.361,7.361,0,0,0-3.671-.925,7.1,7.1,0,0,0-3.6.925,6.665,6.665,0,0,0-2.53,2.541,7.161,7.161,0,0,0-.914,3.6,6.855,6.855,0,0,0,3.466,6.023,7.1,7.1,0,0,0,3.6.925,7.3,7.3,0,0,0,3.66-.925" transform="translate(-11303.845 2628.156)" fill="#fff"/>
    <path id="Path_25896" data-name="Path 25896" d="M366.271,48.246V68.871a.633.633,0,0,1-.161.452.575.575,0,0,1-.438.172h-1.834a.649.649,0,0,1-.624-.452l-.8-3.638a7.848,7.848,0,0,1-1.895,2.368,9.162,9.162,0,0,1-10.359,1.067,7.789,7.789,0,0,1-3.046-3.2,10.162,10.162,0,0,1-1.088-4.8V48.268a.557.557,0,0,1,.6-.6h3.1a.557.557,0,0,1,.6.6V60.6a5.737,5.737,0,0,0,.689,2.82,4.8,4.8,0,0,0,1.959,1.937,5.994,5.994,0,0,0,2.907.689,6.17,6.17,0,0,0,3.025-.767,5.965,5.965,0,0,0,2.207-2.056,5.1,5.1,0,0,0,.818-2.777v-12.2a.557.557,0,0,1,.6-.6h3.121a.533.533,0,0,1,.6.6M350.55,42.735a2.057,2.057,0,0,1,1.471-3.535,1.959,1.959,0,0,1,1.453.6,2.106,2.106,0,0,1,0,2.927,1.958,1.958,0,0,1-1.453.6,1.992,1.992,0,0,1-1.464-.6m7.7-.022a2.046,2.046,0,0,1,1.475-3.51,1.951,1.951,0,0,1,1.431.592,1.971,1.971,0,0,1,.592,1.453,2.012,2.012,0,0,1-.592,1.464,1.933,1.933,0,0,1-1.431.6,2.028,2.028,0,0,1-1.475-.6" transform="translate(-11388.096 2652.711)" fill="#fff"/>
    <path id="Path_25897" data-name="Path 25897" d="M457.491,73.875a.438.438,0,0,1,.151.344.644.644,0,0,1-.085.329l-9.6,20.9a1.292,1.292,0,0,1-.329.419.777.777,0,0,1-.484.14h-.131a.775.775,0,0,1-.484-.14,1.1,1.1,0,0,1-.312-.419l-9.623-20.9a.921.921,0,0,1-.065-.329.446.446,0,0,1,.14-.344.5.5,0,0,1,.355-.129h3.527a.789.789,0,0,1,.474.14.91.91,0,0,1,.3.4L447.073,88l5.742-13.714a.97.97,0,0,1,.312-.388.767.767,0,0,1,.463-.151h3.531a.547.547,0,0,1,.366.129" transform="translate(-11456.419 2626.629)" fill="#fff"/>
    <path id="Path_25898" data-name="Path 25898" d="M538.646,73.19a10.185,10.185,0,0,1,3.865,3.778,10.367,10.367,0,0,1,1.411,5.35,3.3,3.3,0,0,1-.29,1.346,2.893,2.893,0,0,1-.8,1.077,1.726,1.726,0,0,1-1.13.419H526.522a6.174,6.174,0,0,0,1.335,2.713,7.186,7.186,0,0,0,2.519,1.906,7.455,7.455,0,0,0,5.914.172,8.69,8.69,0,0,0,2.486-1.411.667.667,0,0,1,.9.11l1.679,2.19a.726.726,0,0,1,.129.408.7.7,0,0,1-.219.517,10.928,10.928,0,0,1-3.606,2.024,12.458,12.458,0,0,1-4.161.775,11.425,11.425,0,0,1-5.8-1.518,11.256,11.256,0,0,1-4.161-4.122,11.067,11.067,0,0,1-1.533-5.7,11.46,11.46,0,0,1,1.486-5.759,11.076,11.076,0,0,1,4.052-4.133,10.86,10.86,0,0,1,5.64-1.518,10.979,10.979,0,0,1,5.466,1.381M530.1,76.549a6.6,6.6,0,0,0-2.3,1.917,6.8,6.8,0,0,0-1.259,2.755h13.131a6.223,6.223,0,0,0-3.5-4.683,7.081,7.081,0,0,0-3.111-.678,6.484,6.484,0,0,0-2.957.689" transform="translate(-11520.96 2628.09)" fill="#fff"/>
    <path id="Path_25899" data-name="Path 25899" d="M641.689,72.843a7.71,7.71,0,0,1,3.047,3.2,10.231,10.231,0,0,1,1.087,4.811V93.423a.557.557,0,0,1-.6.6h-3.1a.557.557,0,0,1-.6-.6V81.089a5.742,5.742,0,0,0-.693-2.82,4.813,4.813,0,0,0-1.959-1.937,6,6,0,0,0-2.906-.689,6.173,6.173,0,0,0-3.025.767,5.968,5.968,0,0,0-2.207,2.056,5.1,5.1,0,0,0-.818,2.777v12.2a.557.557,0,0,1-.6.6h-3.121a.532.532,0,0,1-.6-.6V72.821a.636.636,0,0,1,.162-.452.576.576,0,0,1,.438-.172h1.83a.626.626,0,0,1,.624.452l.8,3.638a7.834,7.834,0,0,1,1.895-2.368,9.18,9.18,0,0,1,10.359-1.077" transform="translate(-11599.173 2628.156)" fill="#fff"/>
    <path id="Path_25900" data-name="Path 25900" d="M731.543,29.481V61.149a.526.526,0,0,1-.581.582h-3.143a.514.514,0,0,1-.581-.582V29.481q0-.56.581-.56h3.143q.581,0,.581.56" transform="translate(-11675.924 2660.476)" fill="#fff"/>
    <path id="Path_25901" data-name="Path 25901" d="M775.656,73.19a10.185,10.185,0,0,1,3.865,3.778,10.367,10.367,0,0,1,1.411,5.35,3.289,3.289,0,0,1-.291,1.346,2.892,2.892,0,0,1-.8,1.077,1.728,1.728,0,0,1-1.133.419H763.535a6.175,6.175,0,0,0,1.335,2.713,7.182,7.182,0,0,0,2.519,1.906,7.453,7.453,0,0,0,5.914.172,8.69,8.69,0,0,0,2.486-1.411.667.667,0,0,1,.9.11l1.679,2.19a.728.728,0,0,1,.129.408.7.7,0,0,1-.219.517,10.931,10.931,0,0,1-3.606,2.024,12.462,12.462,0,0,1-4.162.775,11.424,11.424,0,0,1-5.8-1.518,11.257,11.257,0,0,1-4.161-4.122,11.067,11.067,0,0,1-1.533-5.7A11.459,11.459,0,0,1,760.5,77.46a11.076,11.076,0,0,1,4.052-4.133,10.861,10.861,0,0,1,5.64-1.518,10.98,10.98,0,0,1,5.468,1.378m-8.536,3.358a6.6,6.6,0,0,0-2.3,1.917,6.8,6.8,0,0,0-1.259,2.755H776.7a6.225,6.225,0,0,0-3.5-4.683,7.081,7.081,0,0,0-3.111-.678,6.483,6.483,0,0,0-2.957.689" transform="translate(-11699.919 2628.09)" fill="#fff"/>
    <path id="Path_25902" data-name="Path 25902" d="M883.955,61.192a.408.408,0,0,1-.118.28.6.6,0,0,1-.329.172H880a.643.643,0,0,1-.43-.054,1.415,1.415,0,0,1-.388-.377l-8.568-10.786-3.7,3.638v7.082a.526.526,0,0,1-.581.582H863.19a.514.514,0,0,1-.581-.582V29.481q0-.56.581-.56h3.133q.582,0,.582.56V49.718l9.3-9.516a.9.9,0,0,1,.624-.345,1.105,1.105,0,0,1,.345.065h3.359q.452.065.452.43a.667.667,0,0,1-.172.41l-6.89,7.363,9.856,12.637a.758.758,0,0,1,.172.43" transform="translate(-11778.13 2660.476)" fill="#fff"/>
    <path id="Path_25903" data-name="Path 25903" d="M963.394,47.261a.583.583,0,0,1,.151.43V68.382q0,.56-.581.56h-3.143q-.582,0-.582-.56V47.694a.514.514,0,0,1,.582-.582h3.143a.584.584,0,0,1,.43.151m-3.466-5.257a1.992,1.992,0,0,1-.6-1.464,1.958,1.958,0,0,1,.6-1.453,2.061,2.061,0,0,1,2.911,2.92,1.958,1.958,0,0,1-1.453.6,1.992,1.992,0,0,1-1.464-.6" transform="translate(-11851.099 2653.241)" fill="#fff"/>
    <path id="Path_25904" data-name="Path 25904" d="M1012.623,74.18a.7.7,0,0,1-.129.388l-1.335,2.174a.618.618,0,0,1-.517.323.666.666,0,0,1-.41-.172,6.388,6.388,0,0,0-1.679-.979,4.664,4.664,0,0,0-1.7-.355,5.282,5.282,0,0,0-2.9.829,5.932,5.932,0,0,0-2.057,2.218,6.2,6.2,0,0,0-.753,3v11.9a.557.557,0,0,1-.6.6h-3.121a.532.532,0,0,1-.6-.6V72.888a.635.635,0,0,1,.161-.452.576.576,0,0,1,.438-.172h1.83a.626.626,0,0,1,.624.452l.732,3.359a8.253,8.253,0,0,1,2.874-3.089,7.119,7.119,0,0,1,3.885-1.173,7.311,7.311,0,0,1,2.573.506,9.167,9.167,0,0,1,2.443,1.367.575.575,0,0,1,.237.5" transform="translate(-11879.473 2628.09)" fill="#fff"/>
    <path id="Path_25905" data-name="Path 25905" d="M1084.3,72.369a.636.636,0,0,1,.161.452v20.6a.634.634,0,0,1-.161.452.576.576,0,0,1-.438.172h-1.83a.649.649,0,0,1-.624-.452l-.776-3.573a9.719,9.719,0,0,1-3.5,3.272,9.622,9.622,0,0,1-4.709,1.163,10.109,10.109,0,0,1-5.393-1.486,10.569,10.569,0,0,1-3.812-4.079,11.927,11.927,0,0,1-1.4-5.759,12.208,12.208,0,0,1,1.389-5.834,10.474,10.474,0,0,1,3.811-4.09,10.11,10.11,0,0,1,5.393-1.486,9.612,9.612,0,0,1,4.709,1.173,9.789,9.789,0,0,1,3.5,3.285l.775-3.531a.625.625,0,0,1,.624-.452h1.83a.577.577,0,0,1,.438.172M1076.8,89.29a7.154,7.154,0,0,0-3.628-13.348,6.853,6.853,0,0,0-3.531.947,7,7,0,0,0-2.561,2.594,7.145,7.145,0,0,0-.947,3.627,6.988,6.988,0,0,0,.958,3.6,7.076,7.076,0,0,0,2.589,2.583,6.869,6.869,0,0,0,3.52.947,7.1,7.1,0,0,0,3.606-.947" transform="translate(-11928.552 2628.157)" fill="#fff"/>
    <path id="Path_25906" data-name="Path 25906" d="M1178.585,29.481V61.149a.526.526,0,0,1-.582.582h-3.143a.514.514,0,0,1-.582-.582V29.481q0-.56.582-.56H1178q.582,0,.582.56" transform="translate(-12013.467 2660.476)" fill="#fff"/>
    <path id="Path_25907" data-name="Path 25907" d="M1228.543,72.369a.636.636,0,0,1,.161.452v20.6a.634.634,0,0,1-.161.452.576.576,0,0,1-.438.172h-1.83a.65.65,0,0,1-.624-.452l-.775-3.573a9.556,9.556,0,0,1-8.2,4.435,10.11,10.11,0,0,1-5.392-1.486,10.571,10.571,0,0,1-3.821-4.079,11.928,11.928,0,0,1-1.4-5.759,12.206,12.206,0,0,1,1.388-5.834,10.478,10.478,0,0,1,3.81-4.09,10.111,10.111,0,0,1,5.393-1.486,9.613,9.613,0,0,1,4.715,1.173,9.787,9.787,0,0,1,3.5,3.285l.775-3.531a.626.626,0,0,1,.624-.452h1.83a.577.577,0,0,1,.438.172m-7.492,16.921a7.154,7.154,0,0,0-3.628-13.348,6.853,6.853,0,0,0-3.531.947,7,7,0,0,0-2.562,2.594,7.145,7.145,0,0,0-.947,3.627,6.986,6.986,0,0,0,.958,3.6,7.072,7.072,0,0,0,2.583,2.583,6.867,6.867,0,0,0,3.52.947,7.1,7.1,0,0,0,3.606-.947" transform="translate(-12037.46 2628.157)" fill="#fff"/>
    <path id="Path_25908" data-name="Path 25908" d="M42.151,52.909H10.756A10.756,10.756,0,0,1,0,42.151V10.756A10.756,10.756,0,0,1,10.756,0H42.151A10.756,10.756,0,0,1,52.907,10.756V42.151A10.756,10.756,0,0,1,42.151,52.907" transform="translate(-11126.82 2682.312)" fill="#006aff"/>
    <path id="Path_25909" data-name="Path 25909" d="M55.585,32.07l15.344,8.861,1.244.718v9.516l-4.939-2.847V44.485L54.36,37.042,41.485,44.475V63.13H67.234V53.9l4.939,2.847V68.07H36.546V41.647l1.244-.718L53.134,32.07l1.225-.707Z" transform="translate(-11154.415 2658.631)" fill="#fff"/>
    <path id="Path_25910" data-name="Path 25910" d="M55.585,93.737l7,4.041,8.345,4.819,1.244.718v11.317H36.546V103.315l1.244-.718,3.7-2.133v9.229H67.234v-3.554L54.36,98.709l-8.033,4.638V97.669l6.809-3.93,1.225-.707Z" transform="translate(-11154.415 2612.069)" fill="#fff"/>
  </g>
</svg>
