<svg id="Group_3921" data-name="Group 3921" xmlns="http://www.w3.org/2000/svg" width="20" height="20" viewBox="0 0 20 20">
  <path id="Path_113" data-name="Path 113" d="M41.156,41.417c0,1.036-1.8,1.752-2.1,2.685s.748,2.657.189,3.458-2.432.292-3.207.886-.9,2.6-1.8,2.921-2.09-1.253-3.081-1.253-2.2,1.564-3.09,1.263-1.027-2.337-1.8-2.921-2.631-.075-3.216-.886.486-2.5.189-3.458-2.081-1.658-2.081-2.695,1.8-1.752,2.1-2.685-.748-2.657-.207-3.467,2.432-.292,3.207-.886.9-2.6,1.8-2.921,2.108,1.263,3.1,1.263,2.2-1.564,3.09-1.263,1.027,2.337,1.8,2.921,2.64.075,3.207.886-.486,2.5-.189,3.458S41.156,40.38,41.156,41.417Z" transform="translate(-21.156 -31.415)" fill="#05da37"/>
  <path id="Path_115" data-name="Path 115" d="M153.944,179.373a1.032,1.032,0,0,1-.719-.287l-2.716-2.614a.952.952,0,0,1,0-1.385,1.045,1.045,0,0,1,1.438,0l1.93,1.857,4.535-5.22a1.045,1.045,0,0,1,1.433-.122.955.955,0,0,1,.128,1.38l-5.249,6.041a1.03,1.03,0,0,1-.736.35Z" transform="translate(-145.211 -165.374)" fill="#fff"/>
</svg>
