<svg xmlns="http://www.w3.org/2000/svg" width="34" height="29.289" viewBox="0 0 34 29.289">
  <path id="Icon_feather-twitter" data-name="Icon feather-twitter" d="M33.5,4.5a15.641,15.641,0,0,1-4.567,2.3,6.373,6.373,0,0,0-7.241-1.874A6.742,6.742,0,0,0,17.5,11.316v1.5A15.345,15.345,0,0,1,4.409,6s-5.818,13.542,7.273,19.561A16.521,16.521,0,0,1,1.5,28.575c13.091,7.523,29.091,0,29.091-17.3a7,7,0,0,0-.116-1.249A11.723,11.723,0,0,0,33.5,4.5Z" transform="translate(-0.5 -3.373)" fill="none" stroke="#fff" stroke-linecap="round" stroke-linejoin="round" stroke-width="2"/>
</svg>
